<svg width="28" height="30" viewBox="0 0 28 30" fill="none" xmlns="http://www.w3.org/2000/svg">
<path fill-rule="evenodd" clip-rule="evenodd" d="M14.2308 3.42088C17.6853 3.2677 19.4055 6.45534 18.7413 8.44803C18.5358 9.0644 18.7505 9.74297 19.2732 10.129C19.7958 10.515 20.5075 10.5206 21.0362 10.143C21.0357 10.1433 21.0355 10.1434 21.0355 10.1434C21.0355 10.1435 21.0357 10.1433 21.0361 10.1431C21.041 10.1402 21.079 10.1173 21.1655 10.0887C21.2626 10.0566 21.3956 10.0256 21.5642 10.0042C21.9045 9.96097 22.3222 9.96555 22.753 10.0306C23.7164 10.176 24.2708 10.5361 24.4164 10.7544C24.9234 11.5149 24.9176 12.0293 24.746 12.528C24.5243 13.1722 23.9759 13.908 23.0586 14.9088C22.4988 15.5195 22.54 16.4683 23.1507 17.0281C23.7614 17.5879 24.7103 17.5466 25.27 16.936C26.186 15.9367 27.1377 14.7975 27.5828 13.5042C28.0779 12.0654 27.9055 10.5798 26.9125 9.09033C26.0581 7.8087 24.4457 7.2521 23.2008 7.06418C22.7568 6.99717 22.3026 6.96728 21.8601 6.97813C21.5631 3.5735 18.5608 0.225929 14.0979 0.423829C10.7875 0.57062 8.66403 1.71821 7.64186 3.71311C7.17112 4.63182 6.99512 5.6298 6.96874 6.58753C6.42466 6.52527 5.87716 6.54484 5.35957 6.62953C3.87461 6.87252 2.35107 7.68799 1.41625 9.0904C0.265307 10.817 0.329671 12.5961 0.892826 14.0324C1.43081 15.4045 2.42211 16.4909 3.26413 17.1224C3.92687 17.6194 4.86707 17.4851 5.36413 16.8224C5.86119 16.1596 5.72687 15.2194 5.06413 14.7224C4.57281 14.3539 3.98101 13.6902 3.68582 12.9373C3.41581 12.2487 3.39696 11.5277 3.91249 10.7544C4.31089 10.1567 5.03731 9.72216 5.84402 9.59016C6.66767 9.45539 7.2924 9.67179 7.60366 9.98304C8.06475 10.4441 8.7709 10.5545 9.35069 10.2561C9.93049 9.95775 10.2511 9.31897 10.1439 8.67578C9.89599 7.18825 9.86764 5.94795 10.3118 5.08116C10.6646 4.39257 11.5412 3.54015 14.2308 3.42088ZM10.4998 15.9224C10.4998 15.0939 9.82818 14.4224 8.99976 14.4224C8.17133 14.4224 7.49976 15.0939 7.49976 15.9224V28.4224C7.49976 29.2508 8.17133 29.9224 8.99976 29.9224C9.82818 29.9224 10.4998 29.2508 10.4998 28.4224V15.9224ZM14.1646 14.4224C14.993 14.4224 15.6646 15.0939 15.6646 15.9224V28.4224C15.6646 29.2508 14.993 29.9224 14.1646 29.9224C13.3361 29.9224 12.6646 29.2508 12.6646 28.4224V15.9224C12.6646 15.0939 13.3361 14.4224 14.1646 14.4224ZM20.4998 15.9224C20.4998 15.0939 19.8282 14.4224 18.9998 14.4224C18.1713 14.4224 17.4998 15.0939 17.4998 15.9224V28.4224C17.4998 29.2508 18.1713 29.9224 18.9998 29.9224C19.8282 29.9224 20.4998 29.2508 20.4998 28.4224V15.9224Z" fill="#ECDFC8"/>
</svg>
