<?xml version="1.0" encoding="UTF-8" standalone="no" ?>
<!DOCTYPE svg PUBLIC "-//W3C//DTD SVG 1.1//EN" "http://www.w3.org/Graphics/SVG/1.1/DTD/svg11.dtd">
<svg xmlns="http://www.w3.org/2000/svg" xmlns:xlink="http://www.w3.org/1999/xlink" version="1.1" width="1080" height="600" viewBox="0 0 1080 600" xml:space="preserve">
<desc>Created with Fabric.js 5.2.4</desc>
<defs>
</defs>
<g transform="matrix(0 0 0 0 0 0)" id="cd08937b-15d7-4f57-9336-6cb1f10f65b8"  >
</g>
<g transform="matrix(1 0 0 1 540 300)" id="b6529073-b5ec-4ff7-b4e5-fd3e61c1a56c"  >
<rect style="stroke: none; stroke-width: 1; stroke-dasharray: none; stroke-linecap: butt; stroke-dashoffset: 0; stroke-linejoin: miter; stroke-miterlimit: 4; fill: rgb(255,255,255); fill-rule: nonzero; opacity: 1; visibility: hidden;" vector-effect="non-scaling-stroke"  x="-540" y="-300" rx="0" ry="0" width="1080" height="600" />
</g>
<g transform="matrix(1.34 0 0 1.34 538.51 299.13)"  >
<g style="" vector-effect="non-scaling-stroke"   >
		<g transform="matrix(1 0 0 1 -250.9 -45.13)"  >
<path style="stroke: none; stroke-width: 1; stroke-dasharray: none; stroke-linecap: butt; stroke-dashoffset: 0; stroke-linejoin: miter; stroke-miterlimit: 4; fill: rgb(169,20,47); fill-rule: nonzero; opacity: 1;" vector-effect="non-scaling-stroke"  transform=" translate(-109.31, -162.83)" d="M 11.081 255.377 C 10.187 240.206 15.3 210.681 20.259 200.778 C 24.745 191.819 30.694 183.959 37.243 176.371 C 43.811 168.761 50.091 160.879 57.278 153.862 C 63.358 147.925 71.465 144.055 73.932 145.06 C 76.081 145.937 76.27 147.795 76.459 149.972 C 77.388 160.69 77.982 171.666 81.98 181.634 C 84.144 187.029 85.608 193.508 89.367 197.56 C 94.989 203.62 99.868 210.277 105.342 216.427 C 109.228 220.792 113.025 225.422 116.446 230.243 C 118.546 233.204 117.997 235.061 113.999 236.314 C 105.954 238.836 97.459 241.197 93.236 249.609 C 89.828 256.398 86.989 262.97 90.234 271.338 C 91.679 275.063 94.269 278.237 95.164 282.172 C 95.469 283.513 96.76 284.419 98.195 284.42 C 106.223 284.431 113.789 283.904 120.801 278.538 C 133.424 268.879 141.707 257.216 145.955 241.545 C 149.628 227.994 152.625 214.234 156.865 200.824 C 158.216 196.552 158.386 192.435 154.541 188.991 C 152.421 187.092 153.794 185.223 155.125 183.298 C 158.275 178.743 162.609 174.757 161.934 168.306 C 161.754 166.594 161.641 165.143 160.637 163.724 C 158.533 160.748 157.699 157.42 158.202 153.777 C 158.292 153.121 158.51 152.286 158.219 151.806 C 154.805 146.162 158.12 141.35 160.019 136.356 C 163.121 128.201 163.044 119.389 165.202 111.034 C 165.432 110.141 165.413 108.564 164.886 108.193 C 160.159 104.875 162.319 100.397 162.868 96.353 C 164.651 83.213 163.023 70.167 162.347 57.067 C 161.763 45.779 162.058 34.448 161.816 23.139 C 161.736 19.416 165.506 18.136 166.449 14.554 C 165.892 12.906 162.354 11.841 164.162 8.748 C 165.902 5.772 168.793 5.903 171.599 5.649 C 180.786 4.818 189.844 6.702 197.951 10.188 C 206.747 13.97 210.182 17.057 205.634 27.035 C 204.074 30.458 204.504 34.463 204.075 38.098 C 202.388 52.395 199.859 66.614 199.604 81.09 C 199.388 93.361 198.458 105.619 197.844 117.883 C 197.819 118.382 197.671 118.914 197.79 119.376 C 200.049 128.078 199.319 137.019 199.625 145.84 C 199.932 154.677 199.941 163.34 196.076 172.089 C 193.049 178.942 193.264 187.278 193.161 195.069 C 193.097 199.86 193.122 204.657 192.196 209.376 C 191.655 212.135 191.071 214.584 192.525 217.518 C 194.161 220.821 191.681 224.43 191.42 227.984 C 190.893 235.151 190.434 242.479 187.977 249.485 C 184.615 259.07 179.046 268.496 172.331 275.677 C 167.152 281.215 168.814 282.443 161.107 289.349 C 151.071 298.341 145.063 303.624 137.232 307.144 C 126.591 311.928 116.296 320.386 96.448 320.212 C 59.408 319.887 53.675 316.894 38.612 305.468 C 15.113 287.644 13.356 272.901 12.321 270.11 M 48.979 285.662 C 54.622 291.388 50.632 289.619 65.717 296.202 C 73.042 299.399 86.289 304.966 98.728 303.735 C 108.55 302.763 135.337 298.784 155.964 275.849 C 157.205 274.469 161.887 268.845 163.162 267.102 C 165.314 264.158 167.331 261.035 168.867 257.737 C 176.341 241.695 181.243 224.897 183.588 207.319 C 184.872 197.696 185.113 197.728 175.052 197.869 C 167.975 197.968 167.324 198.886 166.652 205.899 C 165.797 214.814 162.941 224.916 159.967 233.139 C 155.69 244.962 153.235 254.234 148.403 265.882 C 147.734 267.495 142.092 277.215 129.341 286.668 C 117.631 295.349 105.802 296.367 92.52 293.046 C 82.405 290.517 72.9 272.603 76.871 261.33 C 80.913 249.856 89.079 241.666 95.81 232.312 C 97.641 229.767 98.503 228.281 95.836 226.27 C 88.48 220.724 85.031 212.107 79.589 205.076 C 76.767 201.429 74.44 196.817 72.811 191.996 C 70.805 186.057 69.569 179.552 65.18 174.239 C 58.057 179.442 55.631 187.696 50.486 193.925 C 46.076 199.263 44.926 206.508 41.974 212.634 C 38.082 220.709 35.307 228.671 34.677 237.598 C 33.819 249.751 26.85 257.019 38.647 269.8 M 167.781 143.894 C 166.836 145.585 165.738 146.992 167.036 148.855 C 168.24 150.583 170.065 150.725 171.958 150.566 C 174.934 150.316 177.92 149.771 180.884 149.871 C 184.805 150.003 186.316 148.178 186.407 144.538 C 186.506 140.567 186.014 136.623 186.924 132.617 C 188.607 125.202 189.174 117.216 188.567 110.055 C 187.722 100.091 190.432 90.793 191.082 81.234 C 191.49 75.23 192.435 68.846 193.319 62.678 C 194.902 51.63 194.253 40.278 197.914 29.492 C 198.261 28.469 198.269 27.044 197.822 26.095 C 196.555 23.408 196.5 20.744 197.71 17.762 C 190.4 15.879 183.486 16.784 176.668 17.661 C 173.318 18.091 171.808 20.984 171.81 24.334 C 171.813 28.16 172.149 31.989 172.048 35.81 C 171.867 42.583 173.323 49.412 171.939 56.105 C 170.809 61.57 170.946 67.099 171.288 72.453 C 172.127 85.582 171.852 98.683 171.642 111.798 C 171.587 115.172 167.47 135.301 169.422 137.118 M 185.225 185.759 C 185.322 180.459 185.318 175.175 185.811 169.866 C 186.827 158.918 184.098 158.032 174.325 159.78 C 176.622 166.316 171.94 171.26 170.208 176.976 C 166.571 188.982 166.421 188.937 178.386 190.779 C 178.55 190.804 178.723 190.808 178.876 190.864 C 182.949 192.375 184.818 190.645 185.225 185.759" stroke-linecap="round" />
</g>
		<g transform="matrix(1 0 0 1 95.4 -40.42)"  >
<path style="stroke: none; stroke-width: 1; stroke-dasharray: none; stroke-linecap: butt; stroke-dashoffset: 0; stroke-linejoin: miter; stroke-miterlimit: 4; fill: rgb(169,20,47); fill-rule: nonzero; opacity: 1;" vector-effect="non-scaling-stroke"  paint-order="stroke"  transform=" translate(-455.6, -167.55)" d="M 435.508 245.011 C 433.926 246.033 433.483 245.264 433.635 244.383 C 434.266 240.732 436.852 238.049 438.602 234.958 C 439.074 234.124 440.364 234.118 441.214 234.95 C 442.111 235.83 441.851 236.875 441.091 237.561 C 438.735 239.691 437.084 242.316 435.508 245.011 Z M 412.883 180.005 C 421.719 195.907 432.963 209.421 441.756 224.625 C 437.401 224.04 435.304 220.296 432.541 218.067 C 415.471 204.301 416.297 198.663 409.795 188.787 C 408.216 186.389 410.267 183.48 408.05 181.27 C 407.117 180.341 406.991 178.124 408.541 177.263 C 411.296 175.731 411.695 178.646 412.883 180.005 Z M 497.678 60.348 C 496.915 52.211 496.819 44.569 495.476 37.65 C 494.018 30.137 495.03 28.428 502.036 26.865 C 508.701 25.378 515.177 22.981 522.077 22.445 C 522.237 22.432 522.403 22.52 522.568 22.526 C 527.092 22.689 532.394 20.928 535.401 25.702 C 538.136 30.045 535.947 35.199 534.625 39.225 C 527.951 59.548 528.816 80.572 527.866 101.415 C 527.341 112.93 527.983 107.073 527.914 142.23 C 527.903 147.832 527.206 153.429 527.099 159.033 C 526.911 168.941 526.475 178.819 527.58 188.762 C 528.512 197.144 528.049 205.678 528.307 214.142 C 528.438 218.457 528.794 222.764 529.049 227.076 C 529.167 229.067 528.513 230.801 526.762 231.754 C 520.47 235.179 513.702 236.398 506.598 235.642 C 504.123 235.379 504.371 233.32 504.715 231.785 C 508.259 215.973 507.376 199.75 509.201 183.779 C 509.61 180.206 507.378 171.59 506.865 165.853 C 506.115 157.467 506.446 152.927 506.257 149.977 C 505.769 142.339 506.59 144.183 505.624 140.268 C 502.168 126.258 502.433 111.993 502.124 97.792 C 501.772 81.662 498.677 63.662 497.678 60.348 Z M 433.794 234.102 C 426.713 246.577 424.126 259.416 424.27 272.927 C 424.289 274.74 423.909 276.562 423.648 278.37 C 423.392 280.146 423.634 282.002 425.131 282.874 C 428.856 285.047 430.608 288.621 432.247 292.232 C 433.852 295.769 437.067 297.62 440.138 298.711 C 454.42 303.784 470.583 301.737 480.673 289.534 C 484.801 284.542 490.397 280.874 493.499 275.007 C 498.346 265.839 499.773 255.518 503.163 245.852 C 504.272 242.692 505.587 241.224 508.541 241.361 C 511.031 241.477 513.482 241.776 515.98 241.354 C 517.705 241.062 518.869 241.768 519.084 243.692 C 519.234 245.037 522.963 244.395 524.882 244.547 C 525.988 249.27 524.22 252.274 519.71 252.907 C 517.192 253.261 516.614 254.842 516.082 256.946 C 514.671 262.523 513.953 268.264 511.055 273.463 C 504.514 285.191 494.302 292.389 482.429 297.817 C 473.182 302.044 463.754 305.819 453.861 308.07 C 444.936 310.101 435.867 311.715 426.659 311.756 C 426.328 309.177 428.642 309.664 429.108 308.057 C 428.156 306.231 426.273 305.93 424.286 305.71 C 414.389 304.614 406.227 300.17 398.168 294.301 C 392.568 290.222 387.41 286.352 384.114 280.251 C 383.798 279.666 383.234 279.151 383.11 278.538 C 381.593 271.003 379.17 263.482 378.957 255.902 C 378.773 249.365 377.726 242.74 379.004 236.095 C 380.779 226.869 381.184 217.295 383.821 208.355 C 385.094 204.043 387.763 199.379 391.218 195.741 C 392.589 194.298 394.053 192.876 395.093 191.206 C 396.175 189.471 396.895 187.447 399.428 187.864 C 401.551 188.213 403.294 189.597 403.801 191.577 C 406.206 200.97 413.928 206.495 419.501 213.569 C 423.771 218.989 428.311 224.156 434.115 228.07 C 437.154 230.119 434.552 232.119 433.794 234.102 Z M 444.181 323.504 C 447.604 322.537 454.91 323.71 458.139 323.458 C 469.594 322.565 471.033 321.568 481.626 316.782 C 483.764 315.816 500.214 304.813 501.598 301.885 C 495.404 301.882 489.827 306.691 484.569 307.789 C 479.363 308.875 442.299 317.564 444.734 317.514 C 461.489 317.17 476.525 308.503 493.444 307.889 C 499.853 307.657 506.211 301.939 509.269 294.68 C 512.089 287.988 513.872 280.82 518.163 274.775 C 519.691 272.622 521.204 270.447 522.562 268.185 C 527.698 259.631 530.942 250.281 533.965 239.73 C 535.072 242.958 536.383 245.058 539.275 243.887 C 542.13 242.732 541.563 240.058 541.3 237.816 C 540.917 234.547 539.825 231.442 539.493 228.086 C 538.157 214.603 535.804 201.211 535.866 187.611 C 535.902 179.658 533.828 171.673 535.758 163.126 C 536.141 128.781 537.495 98.366 539.045 90.759 C 541.96 76.445 544.427 62.076 546.848 47.684 C 547.293 45.04 548.8 41.96 544.983 41.171 C 541.379 40.427 541.766 44.122 540.849 46.24 C 540.761 46.441 540.314 46.486 539.766 46.716 C 539.246 43.737 539.65 40.592 540.123 38.007 C 540.704 34.828 547.609 20.051 545.712 17.054 C 545.021 15.963 544.851 14.341 543.069 14.581 C 541.591 14.78 540.897 15.971 540.35 17.239 C 539.7 18.747 540.415 20.911 538.246 21.998 C 537.938 21.295 537.653 20.882 537.577 20.434 C 536.179 12.178 528.926 8.269 521.452 11.768 C 518.471 13.163 515.435 14.201 512.21 15.074 C 508.075 16.194 502.996 16.76 500.993 22.23 C 500.047 24.815 497.658 24.231 496.75 21.685 C 495.94 19.415 495.006 17.53 492.303 18.008 C 489.866 18.439 488.791 20.545 488.346 22.698 C 487.341 27.569 483.08 32.517 488.867 37.383 C 489.832 38.193 489.212 40.894 489.316 42.721 C 489.421 44.539 489.064 46.532 489.691 48.145 C 492.986 56.626 492.299 65.88 495.017 74.47 C 495.696 76.613 496.548 80.266 495.546 81.105 C 491.041 84.876 492.45 89.727 492.681 94.05 C 493.087 101.681 491.997 109.327 492.841 116.883 C 495.055 136.693 496.633 156.552 498.106 176.423 C 498.832 186.224 496.329 195.965 497.546 205.834 C 497.847 208.275 497.337 211.754 493.018 211.548 C 490.814 211.444 490.381 213.392 490.275 215.053 C 490.127 217.372 489.856 219.82 490.404 222.022 C 493.208 233.301 491.696 244.859 492.889 256.228 C 493.143 258.652 492.591 260.916 491.683 263.044 C 487.033 273.942 492.385 270.672 489.395 267.921 C 486.741 265.479 479.174 279.471 477.421 281.292 C 472.156 286.762 471.426 286.824 464.408 289.719 C 452.338 294.699 432.93 285.682 431.092 275.047 C 430.029 268.895 430.239 261.932 435.947 257.049 C 436.874 256.256 437.166 255.191 437.456 254.01 C 438.712 248.9 441.804 244.808 445.117 240.875 C 446.628 239.081 448.167 238.237 450.73 239.502 C 452.932 240.588 455.949 239.588 455.053 236.858 C 453.03 230.697 451.866 223.926 447.201 219.011 C 440.141 211.572 434.815 202.924 430.309 193.92 C 427.986 189.279 425.033 184.908 423.287 179.801 C 422.153 176.484 420.339 171.523 414.784 171.529 C 415.765 169.515 404.871 168.904 402.505 166.862 C 399.038 163.871 393.078 167.585 392.992 167.85 C 389.324 175.127 376.054 188.253 374.847 190.845 C 372.435 196.025 367.585 208.035 367.794 208.819 C 368.842 212.754 367.242 216.266 366.43 220.003 C 363.831 231.973 363.288 244.018 363.932 258.384 C 364.459 270.13 365.045 272.019 366.137 274.868 C 369.671 284.088 373.518 293.513 383.765 297.801 C 385.103 298.361 386.255 299.439 387.388 300.404 C 395.078 306.957 397.474 309.343 419.956 320.676 C 423.066 322.244 426.597 322.965 430.013 323.488 C 437.652 324.657 435.697 325.282 444.181 323.504 Z" stroke-linecap="round" />
</g>
		<g transform="matrix(1 0 0 1 158.22 24.05)"  >
<path style="stroke: none; stroke-width: 1; stroke-dasharray: none; stroke-linecap: butt; stroke-dashoffset: 0; stroke-linejoin: miter; stroke-miterlimit: 4; fill: none; fill-rule: nonzero; opacity: 1;" vector-effect="non-scaling-stroke"  transform=" translate(-518.43, -232.01)" d="M 442.87 265.321 C 441.95 267.565 441.279 269.472 438.769 270.446 L 438.194 270.669 L 438.112 270.046 C 437.813 267.776 438.472 266.061 439.451 264.666 C 440.429 263.272 441.706 262.106 442.657 260.73 L 443.167 259.992 L 443.518 260.801 C 443.998 261.905 443.907 262.829 443.638 263.519 C 443.366 264.212 442.978 264.716 442.897 265.23 L 442.891 265.269 Z M 442.706 263.154 C 442.934 262.572 442.947 262.464 442.9 262.07 C 442.006 263.19 441.186 263.934 440.27 265.24 C 439.355 266.544 438.896 267.608 439.027 269.288 C 440.713 268.54 440.994 267.266 441.931 264.974 C 442.103 264.293 442.48 263.733 442.706 263.154 Z M 432.295 295.256 C 432.274 298.961 431.446 301.784 429.715 304.287 L 428.904 305.46 L 428.806 304.035 C 428.553 300.348 428.557 296.628 430.044 293.102 L 430.205 292.721 L 430.584 292.806 C 431.467 293.004 431.972 293.474 432.123 293.942 C 432.273 294.407 432.212 294.867 432.284 295.152 L 432.295 295.195 Z M 431.171 294.249 C 431.085 293.981 431.41 293.896 430.813 293.852 C 429.52 297.003 429.572 299.313 429.713 302.402 C 430.801 300.398 431.294 298.86 431.295 295.294 C 431.228 294.878 431.259 294.519 431.171 294.249 Z M 498.459 308.461 C 497.563 309.01 496.764 309.124 496.342 308.869 C 496.099 308.723 495.898 308.401 495.835 308.148 C 495.775 307.908 495.78 307.59 495.822 307.328 C 496.518 303.546 499.134 300.782 500.846 297.742 C 501.192 297.222 501.849 296.861 502.443 296.859 C 503.022 296.857 503.733 297.152 504.243 297.623 C 504.754 298.163 505.009 298.851 504.95 299.41 C 504.892 299.97 504.533 300.56 504.106 300.962 C 501.793 303.039 500.191 305.605 498.619 308.294 L 498.556 308.402 Z M 503.435 300.22 C 503.767 299.935 503.919 299.66 503.956 299.306 C 503.993 298.951 503.929 298.677 503.543 298.337 C 503.203 297.976 502.844 297.858 502.447 297.859 C 502.066 297.861 501.842 297.92 501.716 298.235 C 499.929 301.376 497.371 303.978 496.807 307.498 C 496.773 307.677 496.775 307.786 496.805 307.906 C 496.832 308.012 496.812 307.985 496.858 308.013 C 497.015 308.107 497.205 308.1 497.813 307.692 C 499.377 305.022 501.034 302.402 503.435 300.22 Z M 435.142 340.535 C 435.506 336.433 432.83 333.008 434.433 328.515 L 434.913 327.172 L 435.373 328.535 C 437.857 335.886 440.111 342.557 442.365 349.229 L 442.814 350.558 L 441.633 349.816 C 437.938 347.497 436.959 343.812 435.208 340.823 L 435.128 340.686 Z M 440.932 348.11 C 438.904 342.109 437.412 337.692 434.928 330.341 C 434.315 333.712 436.402 335.999 436.147 340.451 C 437.866 343.514 437.463 346.098 440.932 348.11 Z M 563.558 164.793 C 566.208 169.327 564.273 173.32 564.638 176.941 C 565.767 189.46 567.194 202.052 566.462 214.713 C 566.391 215.591 566.745 216.503 566.872 217.521 C 567 218.543 566.816 219.718 565.775 220.866 L 564.995 221.726 L 564.917 220.55 C 563.498 199.022 559.684 177.652 560.025 155.858 L 560.052 154.101 L 560.948 155.6 C 562.77 158.65 561.765 162.218 563.558 164.793 Z M 561.002 158.306 C 560.955 177.565 563.912 194.789 565.478 214.413 C 566.18 201.918 564.765 189.481 563.642 177.031 C 563.329 173.139 565.334 169.366 562.711 165.323 C 560.86 162.342 562.766 160.952 561.002 158.305 Z M 475.999 242.792 C 484.809 258.655 496.051 272.166 504.868 287.405 L 505.387 288.302 L 504.369 288.151 C 499.859 287.482 496.962 284.252 494.82 281.397 C 487.723 271.931 481.12 262.082 474.617 252.204 C 473 249.71 472.523 246.728 470.376 244.655 C 469.849 244.093 469.493 243.113 469.544 242.242 C 469.595 241.372 470.097 240.4 470.977 239.855 C 471.74 239.446 472.45 239.297 472.982 239.392 C 473.537 239.491 474.03 239.863 474.362 240.259 C 475.008 241.03 475.39 242.104 475.939 242.706 L 475.971 242.742 Z M 473.595 240.901 C 473.334 240.59 473.137 240.435 472.806 240.376 C 472.451 240.313 472.078 240.374 471.463 240.73 C 470.793 241.047 470.583 241.614 470.542 242.3 C 470.502 242.985 470.676 243.579 471.081 243.946 C 473.369 246.291 473.911 249.352 475.452 251.654 C 481.953 261.528 488.539 271.353 495.62 280.797 C 497.739 283.623 499.868 286.141 503.462 286.978 C 494.775 272.183 484.01 259.259 475.148 243.319 C 474.529 242.565 474.134 241.544 473.595 240.901 Z M 559.859 123.425 C 559.095 115.268 559.003 107.65 557.664 100.775 C 556.931 96.983 556.815 94.478 557.834 92.797 C 558.857 91.108 561.063 90.201 564.606 89.407 C 571.239 87.93 577.75 85.528 584.717 84.976 C 585.014 84.992 585.209 85.08 585.265 85.057 C 587.478 85.141 589.945 84.735 592.271 84.917 C 594.604 85.099 596.873 85.977 598.503 88.465 C 601.257 93.04 599.093 98.405 597.779 102.411 C 591.118 122.647 591.851 143.597 591.045 164.464 C 590.52 178.026 591.162 191.644 591.093 205.262 C 591.062 210.893 590.383 216.493 590.278 222.072 C 590.089 231.987 589.652 241.833 590.756 251.736 C 591.689 260.16 591.228 268.714 591.485 277.156 C 591.616 281.458 591.972 285.759 592.228 290.076 C 592.33 292.171 591.546 294.139 589.681 295.223 C 583.313 298.674 576.398 299.923 569.224 299.17 C 568.539 299.088 567.955 298.865 567.579 298.566 C 567.188 298.255 566.915 297.784 566.796 297.354 C 566.564 296.513 566.731 295.487 566.906 294.706 C 570.445 278.961 569.557 262.765 571.383 246.752 C 571.792 243.239 571.328 239.598 571.145 235.953 C 571.076 234.547 571.181 233.112 572.156 231.858 L 572.308 231.663 L 572.568 231.679 C 575.168 231.84 576.618 231.41 577.22 230.385 C 577.824 229.357 577.521 227.825 576.045 225.453 C 574.356 222.668 573.953 220.153 574.61 217.175 C 575.57 213.098 574.264 209.048 573.294 205.118 C 569.831 191.044 570.089 176.723 569.78 162.533 C 569.428 146.39 569.887 130.242 569.688 114.116 C 569.666 112.163 569.38 110.182 569.659 108.342 C 569.939 106.495 570.884 104.722 573.138 103.318 C 573.681 103.03 573.951 102.471 573.982 101.827 C 573.997 101.513 573.951 101.285 573.8 101.03 C 573.645 100.769 573.469 100.593 573.099 100.461 C 570.602 99.455 568.625 98.027 566.527 96.504 C 565.951 96.069 565.608 95.97 565.295 96.004 C 565.017 96.033 564.901 96.138 564.712 96.446 C 564.304 97.113 564.177 98.217 564.159 99.198 C 563.948 109.984 562.855 120.717 564.013 131.439 C 564.072 132.159 563.881 132.865 563.698 134.557 L 563.536 136.052 L 562.773 134.761 C 560.281 130.542 560.87 126.724 559.878 123.523 L 559.864 123.477 Z M 562.907 132.915 C 563.008 132.242 563.095 132.072 563.019 131.546 C 561.861 120.72 562.951 109.924 563.16 99.179 C 563.181 98.15 563.342 96.77 563.859 95.925 C 564.132 95.477 564.637 95.069 565.188 95.009 C 565.704 94.954 566.398 95.189 567.115 95.695 C 569.213 97.218 571.082 98.587 573.47 99.532 C 573.988 99.756 574.429 100.13 574.66 100.52 C 574.894 100.915 575.002 101.437 574.981 101.875 C 574.94 102.738 574.378 103.699 573.655 104.174 C 571.588 105.377 570.904 106.801 570.647 108.492 C 570.39 110.189 570.66 112.086 570.687 114.104 C 570.887 130.25 570.428 146.394 570.78 162.511 C 571.089 176.722 570.817 190.933 574.265 204.878 C 575.227 208.778 576.535 213.059 575.585 217.396 C 574.934 220.185 575.275 222.328 576.897 224.93 C 578.437 227.466 578.854 229.578 578.082 230.892 C 577.307 232.21 575.403 232.778 572.766 232.688 C 572.066 233.595 572.075 234.541 572.144 235.904 C 572.323 239.511 572.785 243.233 572.377 246.866 C 570.554 262.795 571.432 279.044 567.882 294.925 C 567.712 295.678 567.584 296.449 567.76 297.087 C 567.846 297.397 567.954 297.586 568.201 297.783 C 568.464 297.992 568.777 298.126 569.33 298.175 C 576.363 298.934 582.985 297.743 589.202 294.345 C 590.839 293.523 591.363 292.024 591.229 290.135 C 590.974 285.83 590.618 281.515 590.486 277.187 C 590.229 268.702 590.693 260.188 589.762 251.847 C 588.656 241.866 589.09 231.955 589.278 222.053 C 589.387 216.424 590.066 210.831 590.093 205.257 C 590.162 191.665 589.521 178.031 590.046 164.426 C 590.851 143.595 590.143 122.509 596.829 102.099 C 598.158 98.053 600.374 93.111 597.657 88.998 C 596.279 86.713 594.394 86.085 592.193 85.914 C 589.986 85.741 587.54 86.134 585.229 86.056 C 584.956 86.021 584.818 85.932 584.795 85.973 C 577.962 86.495 571.522 88.887 564.824 90.383 C 561.361 91.152 559.558 91.881 558.689 93.315 C 557.815 94.757 557.921 96.863 558.646 100.584 C 559.993 107.548 560.092 115.185 560.85 123.284 C 561.837 126.688 561.327 129.518 562.907 132.915 Z M 496.908 297.378 C 489.854 309.78 487.3 322.492 487.449 335.952 C 487.463 337.818 487.08 339.679 486.822 341.472 C 486.696 342.325 486.695 343.129 486.894 343.86 C 487.09 344.583 487.399 345.118 488.062 345.473 C 491.885 347.751 493.739 351.437 495.381 355.056 C 496.883 358.479 499.954 360.198 502.985 361.27 C 510.066 363.793 517.543 364.53 524.559 363.141 C 531.574 361.752 537.995 358.286 542.967 352.245 C 547.15 347.203 552.718 343.578 555.736 337.803 C 560.557 328.718 561.968 318.431 565.371 308.716 C 565.939 307.103 566.604 305.83 567.507 305.027 C 568.42 304.214 569.68 303.835 571.243 303.892 C 573.752 304.009 576.15 304.312 578.576 303.891 C 579.515 303.744 580.44 303.868 581.068 304.315 C 581.693 304.761 582.126 305.616 582.26 306.667 C 582.401 307.968 582.641 309.011 583.797 309.576 C 584.156 309.658 584.319 309.585 584.569 309.409 C 584.821 309.231 585.014 308.966 585.252 308.626 C 585.489 308.286 585.759 307.881 586.103 307.581 C 586.452 307.277 586.998 307.062 587.601 307.079 L 587.962 307.088 L 588.048 307.463 C 588.607 309.903 588.434 312.036 587.508 313.552 C 586.578 315.074 584.804 316.085 582.459 316.433 C 581.297 316.574 580.702 316.97 580.231 317.6 C 579.756 318.234 579.509 319.058 579.246 320.099 C 577.84 325.645 577.099 331.447 574.17 336.736 C 567.556 348.547 557.229 355.851 545.316 361.302 C 536.058 365.534 526.581 369.325 516.651 371.588 C 507.714 373.621 498.591 375.241 489.34 375.286 L 488.891 375.288 L 488.842 374.85 C 488.761 374.128 488.86 373.523 489.072 373.116 C 489.293 372.689 489.664 372.374 489.984 372.158 C 490.623 371.727 491.086 371.624 491.259 371.145 C 490.455 369.611 488.885 369.455 486.91 369.237 C 476.921 368.112 468.639 363.622 460.553 357.735 C 454.95 353.654 449.718 349.701 446.353 343.518 C 446.089 343 445.499 342.415 445.299 341.667 C 443.789 334.159 441.361 326.596 441.136 318.946 C 440.955 312.441 439.913 305.762 441.192 299.03 C 442.963 289.841 443.373 280.243 446.021 271.244 C 447.316 266.878 450.044 262.112 453.535 258.426 C 454.913 256.976 456.346 255.594 457.348 253.972 C 457.875 253.128 458.347 252.141 459.031 251.415 C 459.723 250.681 460.771 250.215 462.189 250.4 C 463.312 250.594 464.404 251.075 465.22 251.755 C 466.038 252.438 466.676 253.416 466.964 254.483 C 469.272 263.734 476.948 269.167 482.572 276.29 C 486.834 281.699 491.322 286.807 497.074 290.685 C 497.895 291.239 498.407 291.88 498.606 292.468 C 498.813 293.078 498.729 293.758 498.527 294.311 C 498.132 295.396 497.277 296.391 496.94 297.31 L 496.928 297.343 Z M 497.588 293.97 C 497.751 293.519 497.795 293.191 497.659 292.788 C 497.515 292.362 497.213 291.985 496.515 291.515 C 490.657 287.565 486.065 282.338 481.787 276.908 C 476.265 269.883 468.497 264.265 465.995 254.731 C 465.776 253.818 465.289 253.115 464.579 252.523 C 463.867 251.929 463.026 251.543 462.026 251.387 C 460.911 251.156 460.331 251.493 459.759 252.101 C 459.179 252.716 458.751 253.609 458.197 254.501 C 457.119 256.217 455.623 257.679 454.26 259.115 C 450.84 262.705 448.23 267.268 446.98 271.527 C 444.352 280.406 443.953 289.956 442.174 299.219 C 440.898 305.778 441.949 312.349 442.136 318.918 C 442.336 326.428 444.755 333.907 446.279 341.469 C 446.326 341.947 446.866 342.393 447.233 343.043 C 450.459 349.063 455.544 352.85 461.141 356.927 C 469.173 362.778 477.215 367.176 487.02 368.243 C 489.019 368.465 491.096 368.898 492.23 370.856 L 492.339 371.044 L 492.267 371.227 C 491.887 372.192 491.095 372.614 490.543 372.987 C 490.268 373.172 490.093 373.319 489.959 373.576 C 489.816 373.853 489.791 373.977 489.795 374.283 C 498.802 374.195 507.515 372.641 516.429 370.613 C 526.285 368.373 535.664 364.615 544.9 360.392 C 556.733 354.988 566.831 347.895 573.297 336.249 C 576.166 331.142 576.86 325.461 578.276 319.853 C 578.545 318.791 578.853 317.772 579.43 317.001 C 580.01 316.226 580.963 315.655 582.32 315.442 C 584.484 315.157 585.849 314.349 586.654 313.03 C 587.464 311.705 587.71 310.365 587.163 308.082 C 587.019 308.122 587.002 308.124 586.761 308.335 C 586.516 308.549 586.316 308.85 586.072 309.199 C 585.828 309.548 585.528 309.956 585.146 310.226 C 584.761 310.497 584.172 310.638 583.529 310.539 L 583.456 310.527 L 583.393 310.49 C 581.937 309.635 581.425 308.166 581.266 306.778 C 581.186 305.904 580.929 305.444 580.487 305.129 C 580.047 304.815 579.528 304.732 578.743 304.877 C 576.173 305.301 573.669 305.005 571.197 304.891 C 569.806 304.811 568.931 305.098 568.172 305.774 C 567.401 306.46 566.854 307.501 566.314 309.047 C 562.935 318.665 561.494 329.02 556.62 338.27 C 553.434 344.23 547.809 347.94 543.737 352.882 C 538.619 359.044 531.914 362.704 524.754 364.122 C 517.595 365.539 509.85 364.762 502.65 362.212 C 499.538 361.102 496.178 359.119 494.47 355.469 C 492.834 351.864 491.184 348.402 487.559 346.336 C 486.725 345.818 486.164 344.989 485.929 344.122 C 485.696 343.263 485.702 342.251 485.832 341.329 C 486.096 339.505 486.473 337.721 486.449 335.962 C 486.31 322.399 488.913 309.463 496.021 296.914 C 496.448 295.865 497.252 294.893 497.588 293.969 Z M 492.617 387.012 C 489.15 386.477 485.794 385.224 482.485 384.183 C 469.815 380.176 459.693 372.051 449.749 363.819 C 448.588 362.858 447.512 361.801 446.251 361.292 C 435.869 356.869 431.885 347.302 428.349 338.077 C 427.245 335.185 426.476 330.826 428.538 327.116 C 430.043 324.598 429.64 321.839 428.261 319.435 C 421.374 307.053 426.033 294.859 428.621 282.927 C 429.449 279.139 431.052 275.744 429.99 271.978 C 429.783 271.199 429.504 270.018 429.824 269.204 C 432.302 264.054 434.66 258.846 437.072 253.664 C 437.67 252.383 438.414 250.492 439.72 249.519 C 440.385 249.023 441.317 248.731 442.337 248.906 C 443.315 249.075 443.862 249.375 444.777 249.981 C 443.276 244.396 445.24 242.246 447.728 239.382 C 450.132 236.614 453.258 234.353 455.05 230.994 C 454.841 230.859 454.533 230.656 454.254 230.386 C 453.97 230.111 453.661 229.689 453.523 229.205 C 453.39 228.738 453.408 228.096 453.634 227.417 L 453.727 227.139 L 454.026 227.091 C 457.844 226.481 461.876 226.461 465.511 229.514 C 466.688 230.53 467.768 231.41 468.883 231.633 C 469.984 231.853 470.997 231.516 472.23 229.752 C 472.751 229.077 473.576 228.591 474.4 228.482 C 475.217 228.375 476.194 228.603 477.015 229.12 C 478.066 229.839 478.628 230.78 478.696 231.733 C 478.764 232.671 478.547 233.281 478.215 234.099 C 480.735 234.337 482.429 235.426 483.766 237.141 C 485.104 238.858 485.871 241.008 486.439 242.669 C 488.156 247.718 491.096 252.057 493.435 256.726 C 497.931 265.711 503.214 274.299 510.243 281.697 C 514.973 286.742 516.193 293.607 518.207 299.732 C 518.443 300.502 518.431 301.256 518.206 301.797 C 517.976 302.351 517.48 302.828 516.955 303.089 C 515.934 303.595 514.395 303.549 513.188 302.98 C 511.991 302.372 511.156 302.301 510.356 302.549 C 509.558 302.796 508.906 303.358 508.178 304.227 C 504.874 308.15 501.833 312.141 500.621 317.16 C 500.329 318.347 499.956 319.542 498.951 320.459 C 493.33 325.16 493.204 331.89 494.264 337.992 C 495.137 343.203 498.421 347.588 503.008 350.166 C 507.599 352.746 513.327 353.426 519.238 350.954 C 526.2 348.091 532.013 343.655 537.25 338.211 C 538.094 337.342 539.043 335.799 540.149 334.761 C 540.711 334.233 541.402 333.784 542.097 333.682 C 542.794 333.58 543.628 333.856 544.388 334.522 C 545.193 335.29 545.594 336.128 545.593 336.86 C 545.592 337.599 545.218 338.355 544.741 338.978 C 543.804 340.204 542.306 341.303 541.482 342.361 C 534.831 350.756 527.882 355.447 518.348 358.485 C 523.235 358.189 529.649 356.553 533.284 353.339 C 542.095 345.636 549.287 336.717 553.902 325.877 C 554.797 323.788 555.331 321.649 555.071 319.31 C 553.879 307.882 555.396 296.359 552.597 285.172 C 552.044 282.882 552.308 280.358 552.455 278.051 C 552.511 277.2 552.663 276.178 553.107 275.417 C 553.556 274.645 554.463 274.071 555.72 274.079 C 557.728 274.224 558.68 273.523 559.255 272.473 C 559.831 271.423 559.877 270.106 559.729 268.925 C 558.517 258.964 561.02 249.21 560.286 239.49 C 558.813 219.621 557.236 199.77 555.023 179.968 C 554.18 172.35 555.269 164.689 554.86 157.107 C 554.749 154.976 554.331 152.648 554.518 150.36 C 554.705 148.071 555.577 145.744 557.904 143.752 C 558.316 143.516 558.262 142.618 558.095 141.373 C 557.927 140.118 557.555 138.711 557.22 137.651 C 554.49 128.967 555.182 119.728 551.904 111.356 C 551.264 109.609 551.604 107.539 551.496 105.78 C 551.445 104.823 551.572 103.672 551.593 102.69 C 551.614 101.715 551.619 101.034 551.224 100.795 C 548.245 98.21 547.764 95.516 548.247 92.979 C 548.729 90.451 550.057 87.995 550.536 85.627 C 550.767 84.517 551.182 83.348 551.854 82.44 C 552.529 81.529 553.574 80.804 554.895 80.545 C 556.38 80.32 557.529 80.728 558.275 81.498 C 559.01 82.259 559.49 83.399 559.9 84.547 C 560.291 85.722 560.929 86.301 561.62 86.419 C 561.943 86.474 562.155 86.428 562.444 86.218 C 562.753 85.995 562.999 85.673 563.203 85.088 C 564.276 82.249 566.171 80.592 568.267 79.599 C 570.362 78.606 572.711 78.177 574.758 77.622 C 577.968 76.753 580.963 75.73 583.919 74.345 C 587.769 72.572 591.687 72.657 594.709 74.282 C 597.728 75.907 600.007 79.149 600.749 83.38 C 600.784 83.728 600.933 83.906 601.149 84.337 C 602.118 83.914 601.894 83.519 602.056 82.708 C 602.22 81.895 602.224 80.928 602.57 80.071 C 603.131 78.776 604.02 77.436 605.682 77.115 C 606.75 77.039 607.49 77.482 607.891 78.065 C 608.283 78.637 608.495 79.329 608.813 79.817 C 610.741 83.01 609.748 86.8 611.818 89.64 C 612.101 90.083 612.238 90.629 612.187 91.068 C 612.136 91.507 611.909 91.985 611.626 92.329 C 611.071 93.001 610.029 93.477 609.097 93.437 C 607.602 93.304 606.61 93.525 605.834 93.973 C 605.078 94.41 604.637 95.008 604.296 95.801 C 603.607 97.403 603.588 99.495 603.294 101.127 C 602.823 103.699 602.47 106.377 602.852 109.116 C 603.057 109.085 603.186 109.123 603.069 109.072 C 603.508 108.089 603.629 106.632 604.128 105.466 C 604.382 104.872 604.799 104.275 605.378 103.946 C 605.943 103.626 606.777 103.523 607.763 103.712 C 608.787 103.934 609.556 104.344 610.001 104.849 C 610.461 105.37 610.668 106.083 610.692 106.743 C 610.741 108.031 610.233 109.514 610.02 110.797 C 607.599 125.19 605.13 139.567 602.214 153.889 C 600.667 161.477 599.702 169.316 600.179 177.459 C 600.704 186.479 601.074 195.462 602.788 204.247 C 604.847 214.828 605.22 225.549 607.155 236.098 C 609.533 249.079 611.706 262.353 610.778 275.783 C 610.674 277.273 610.425 278.891 609.846 280.294 C 609.464 281.203 608.98 282.317 608.274 283.1 C 607.558 283.894 606.436 284.369 605.065 284.052 C 604.352 283.838 603.809 283.466 603.541 283.047 C 603.266 282.617 603.192 282.045 603.227 281.56 C 603.295 280.612 603.7 279.617 603.737 278.842 C 604.576 265.705 602.566 252.757 600.952 239.732 C 600.412 235.311 601.012 231.504 598.677 227.457 C 597.185 235.445 599.073 242.626 599.045 250.643 C 598.979 264.198 601.331 277.565 602.669 291.066 C 602.989 294.365 604.08 297.465 604.476 300.788 C 604.605 301.896 604.825 303.198 604.629 304.371 C 604.432 305.554 603.69 306.699 602.141 307.381 C 600.547 307.978 599.207 307.722 598.286 306.851 C 597.39 306.004 597.15 305.375 596.708 304.337 C 593.682 314.901 590.828 322.871 585.67 331.472 C 584.302 333.748 582.779 335.939 581.25 338.094 C 576.998 344.055 575.241 351.175 572.409 357.905 C 569.287 365.252 562.708 371.122 556.141 371.419 C 539.338 371.999 524.298 380.667 507.423 381.044 C 504.909 381.083 503.061 380.426 500.896 381.519 C 505.921 382.889 510.58 381.377 515.852 381.918 C 521.414 382.545 526.468 380.221 532.022 380.221 C 537.32 380.248 542.49 379.254 547.692 378.169 C 552.895 377.09 557.978 374.746 564.277 374.726 L 565.077 374.723 L 564.729 375.439 C 563.257 378.469 561.292 379.809 559.119 380.795 C 548.464 385.6 537.112 387.517 525.635 388.412 C 522.462 388.653 519.523 389.587 516.093 390.556 C 507.432 392.306 500.168 388.15 492.616 387.012 Z M 515.869 389.582 C 519.278 388.618 522.272 387.678 525.558 387.415 C 536.99 386.525 548.176 384.651 558.707 379.883 C 560.81 378.937 562.215 378.035 563.464 375.736 C 557.741 375.907 553.208 378.033 547.896 379.148 C 542.686 380.235 537.412 381.239 532.018 381.221 C 526.674 381.175 521.569 383.497 515.746 382.912 C 510.678 382.351 505.23 384.049 499.545 382.145 L 498.576 381.82 L 499.421 381.262 C 502.327 379.345 505.048 380.105 507.403 380.044 C 524.038 379.734 539.07 371.066 556.104 370.419 C 562.356 370.251 568.492 364.687 571.488 357.516 C 574.295 350.86 576.105 343.645 580.434 337.516 C 581.961 335.364 583.463 333.206 584.812 330.958 C 589.927 322.45 593.145 313.16 596.163 302.622 L 596.601 301.092 L 597.117 302.598 C 597.661 304.19 598.214 305.407 598.973 306.125 C 599.707 306.818 600.468 307.027 601.766 306.454 C 603.073 305.979 603.475 305.21 603.642 304.207 C 603.811 303.194 603.616 302.038 603.482 300.904 C 603.112 297.689 602.02 294.58 601.674 291.165 C 600.341 277.701 597.986 264.283 598.045 250.639 C 598.089 242.75 596.021 234.711 597.95 226.046 L 598.202 224.909 L 598.849 225.872 C 602.02 230.593 601.403 235.32 601.944 239.609 C 603.557 252.619 605.569 265.66 604.735 278.906 C 604.664 279.832 604.282 280.833 604.224 281.632 C 604.196 282.019 604.224 282.259 604.384 282.509 C 604.552 282.771 604.777 282.95 605.333 283.089 C 606.352 283.437 606.942 283.084 607.532 282.43 C 608.131 281.765 608.545 280.811 608.924 279.907 C 609.47 278.624 609.681 277.165 609.781 275.714 C 610.714 262.4 608.548 249.25 606.172 236.278 C 604.228 225.657 603.857 214.941 601.807 204.439 C 600.083 195.578 599.706 186.529 599.181 177.517 C 598.706 169.285 599.681 161.316 601.234 153.69 C 604.148 139.383 606.613 125.022 609.034 110.631 C 609.267 109.27 609.735 107.89 609.693 106.78 C 609.673 106.241 609.569 105.871 609.251 105.51 C 608.919 105.133 608.445 104.862 607.561 104.691 C 606.745 104.508 606.276 104.587 605.871 104.816 C 605.481 105.038 605.261 105.357 605.047 105.859 C 604.609 106.884 604.465 108.333 603.986 109.469 C 603.695 109.82 603.114 109.996 602.639 110.207 L 602.061 110.464 L 601.953 109.832 C 601.431 106.778 601.836 103.545 602.31 100.947 C 602.597 99.401 602.611 97.186 603.377 95.406 C 603.764 94.507 604.406 93.644 605.334 93.107 C 606.244 92.582 607.539 92.316 609.179 92.44 C 609.849 92.531 610.431 92.207 610.854 91.693 C 611.06 91.443 611.161 91.232 611.194 90.953 C 611.226 90.674 611.201 90.473 610.995 90.209 C 608.853 86.958 609.835 83.151 607.968 80.352 C 607.596 79.748 607.377 79.084 607.066 78.631 C 606.764 78.191 606.528 77.943 605.815 78.106 C 604.519 78.183 604.022 79.226 603.488 80.467 C 603.184 81.117 603.221 81.987 603.037 82.904 C 602.853 83.824 602.35 84.81 601.149 85.475 L 600.684 85.733 L 600.467 85.228 C 600.183 84.567 599.88 84.096 599.763 83.547 C 599.107 79.522 597.06 76.682 594.235 75.163 C 591.411 73.644 587.967 73.525 584.343 75.251 C 581.336 76.656 578.26 77.709 575.02 78.587 C 572.932 79.151 570.674 79.565 568.695 80.503 C 566.717 81.44 565.07 82.801 564.142 85.432 C 563.873 86.139 563.465 86.714 563.031 87.028 C 562.579 87.356 561.959 87.491 561.453 87.404 C 560.486 87.24 559.476 86.253 558.958 84.883 C 558.558 83.761 558.166 82.824 557.556 82.194 C 556.956 81.574 556.287 81.278 555.069 81.53 C 553.953 81.702 553.242 82.246 552.658 83.035 C 552.072 83.826 551.728 84.786 551.515 85.829 C 550.988 88.332 549.683 90.786 549.23 93.166 C 548.778 95.538 549.06 97.75 551.868 100.03 C 552.438 100.602 552.615 101.677 552.593 102.711 C 552.571 103.739 552.441 104.851 552.495 105.722 C 552.595 107.598 552.222 109.516 552.836 110.994 C 556.147 119.584 555.466 128.853 558.173 137.349 C 558.516 138.432 558.91 139.923 559.086 141.24 C 559.265 142.567 559.136 143.916 558.546 144.519 C 556.368 146.297 555.692 148.282 555.515 150.441 C 555.338 152.602 555.74 154.861 555.859 157.054 C 556.264 164.733 555.172 172.365 556.017 179.857 C 558.231 199.675 559.81 219.544 561.283 239.416 C 562.003 249.298 559.498 259.027 560.721 268.803 C 560.873 270.063 560.816 271.706 560.132 272.954 C 559.447 274.203 557.985 275.138 555.673 275.078 C 554.726 274.981 554.315 275.329 553.971 275.92 C 553.621 276.522 553.504 277.305 553.453 278.115 C 553.304 280.445 553.026 282.817 553.568 284.931 C 556.377 296.303 554.872 307.895 556.065 319.206 C 556.314 321.715 555.743 324.103 554.822 326.27 C 550.137 337.227 542.814 346.326 533.942 354.092 C 530.108 357.412 519.735 360.189 515.183 359.337 L 512.952 358.919 L 515.154 358.361 C 525.937 355.629 534.157 350.033 540.697 341.741 C 541.617 340.591 543.094 339.486 543.947 338.371 C 544.366 337.823 544.592 337.375 544.593 336.858 C 544.594 336.334 544.4 335.865 543.711 335.258 C 543.144 334.703 542.728 334.6 542.243 334.671 C 541.755 334.743 541.331 335.022 540.834 335.489 C 539.822 336.44 538.879 337.952 537.97 338.904 C 532.677 344.399 526.694 348.951 519.62 351.878 C 513.461 354.385 507.279 353.713 502.518 351.038 C 497.753 348.36 494.243 343.586 493.278 338.162 C 492.211 331.96 492.505 324.765 498.301 319.699 C 499.149 319.03 499.361 318.095 499.65 316.921 C 500.949 311.72 504.092 307.526 507.414 303.583 C 508.197 302.658 509.07 301.901 510.06 301.594 C 511.048 301.288 512.264 301.426 513.63 302.083 C 514.625 302.601 515.695 302.597 516.51 302.193 C 516.902 301.999 517.13 301.782 517.282 301.414 C 517.44 301.034 517.469 300.64 517.257 300.044 C 515.225 293.847 514.118 287.17 509.518 282.385 C 502.426 274.905 497.058 266.197 492.541 257.174 C 490.234 252.561 487.269 248.159 485.493 242.993 C 484.927 241.337 484.219 239.348 482.978 237.756 C 481.736 236.163 480.101 235.013 477.463 235.059 L 476.654 235.073 L 477.013 234.34 C 477.491 233.365 477.753 232.555 477.699 231.804 C 477.646 231.066 477.357 230.504 476.468 229.957 C 475.815 229.51 475.18 229.388 474.531 229.474 C 473.89 229.558 473.399 229.808 473.039 230.341 C 471.575 232.279 470.045 232.885 468.687 232.613 C 467.343 232.345 466.046 231.297 464.858 230.271 C 461.559 227.34 458.233 227.428 454.484 228.031 C 454.386 228.395 454.39 228.599 454.485 228.932 C 454.575 229.247 454.726 229.45 454.95 229.668 C 455.17 229.881 455.406 230.034 455.615 230.169 C 455.719 230.236 455.83 230.308 455.91 230.373 C 455.957 230.412 456.032 230.486 456.073 230.547 C 456.132 230.635 456.156 230.878 456.146 231.035 L 456.145 231.05 L 456.117 231.105 C 454.206 234.834 450.892 237.264 448.483 240.038 C 446.078 242.806 444.515 245.828 446.049 251.056 L 446.511 252.631 L 445.248 251.576 C 443.976 250.513 443.004 250.036 442.168 249.892 C 441.374 249.755 440.851 249.923 440.318 250.321 C 439.224 251.136 438.589 252.776 437.979 254.086 C 435.568 259.263 433.209 264.477 430.725 269.638 C 430.434 270.094 430.746 270.93 430.956 271.72 C 431.99 275.823 430.393 279.452 429.598 283.139 C 426.987 295.147 422.275 306.989 429.132 318.944 C 430.571 321.527 430.972 324.781 429.405 327.614 C 427.401 330.982 428.203 334.913 429.283 337.719 C 432.815 346.934 436.525 356.218 446.637 360.37 C 448.052 360.98 449.254 362.112 450.386 363.048 C 460.325 371.277 470.279 379.309 482.785 383.229 C 486.12 384.279 489.401 385.514 492.768 386.024 C 500.494 387.223 507.569 391.378 515.869 389.582 Z" stroke-linecap="round" />
</g>
		<g transform="matrix(1 0 0 1 279.27 33.08)"  >
<path style="stroke: none; stroke-width: 1; stroke-dasharray: none; stroke-linecap: butt; stroke-dashoffset: 0; stroke-linejoin: miter; stroke-miterlimit: 4; fill: rgb(169,20,47); fill-rule: nonzero; opacity: 1;" vector-effect="non-scaling-stroke"  transform=" translate(-639.48, -241.05)" d="M 657.086 247.773 C 658.62 252.11 642.015 258.824 638.487 257.548 C 633.304 255.673 643.607 247.562 640.527 242.275 C 638.516 238.822 619.926 243.133 614.848 242.397 C 607.242 241.295 605.265 246.986 601.106 249.689 C 597.952 251.738 597.188 257.74 595.541 261.302 C 594.487 263.584 594.856 276.436 596.029 278.09 C 601.448 285.727 608.121 292.032 616.641 296.184 C 619.971 297.806 622.223 302.297 626.991 300.083 C 629.247 299.036 631.87 298.394 633.666 296.817 C 639.006 292.127 649.11 287.4 650.691 285.658 C 658.729 276.804 663.469 269.665 666.034 263.471 C 673.771 244.791 671.065 229.422 670.816 224.988 C 670.551 220.257 670.77 215.344 669.122 210.725 C 668.899 210.102 668.576 209.373 668.71 208.787 C 670.503 200.959 667.309 194.427 663.74 187.823 C 662.026 184.652 660.425 180.471 663.544 177.556 C 667.154 174.182 671.796 171.501 677.056 172.828 C 679.428 173.425 681.492 173.495 683.805 173.206 C 688.529 172.618 689.367 173.698 688.781 178.336 C 687.739 186.586 681.027 199.91 680.676 202.97 C 679.094 216.76 679.152 230.435 684.249 243.578 C 685.466 246.714 683.646 249.318 684.122 252.361 C 685.806 263.109 690.185 273.045 692.837 283.484 C 693.536 286.234 694.375 288.916 694.43 291.79 C 694.47 293.877 695.013 295.762 697.515 296.474 C 700.702 294.888 701.085 291.011 703.56 288.82 C 704.825 287.7 705.578 285.109 707.809 286.69 C 709.557 287.928 709.896 290.144 708.846 292.121 C 707.21 295.202 705.835 298.547 703.223 300.924 C 699.134 304.645 699.444 308.952 700.925 313.571 C 701.077 314.046 701.357 314.495 701.425 314.977 C 701.658 316.649 701.944 318.535 699.989 319.3 C 697.961 320.094 696.876 318.492 696.186 316.958 C 694.148 312.421 691.298 308.252 690.215 303.273 C 689.603 300.46 688.552 297.817 685.198 297.066 C 683.487 296.682 682.947 295.142 682.565 293.697 C 681.19 288.494 675.646 286.63 673.899 280.9 C 669.598 288.271 668.416 289.93 663.863 295.717 C 660.697 301.806 659.567 304.155 657.219 306.038 C 649.634 312.121 646.311 320.592 636.737 323.983 C 621.023 329.548 606.477 327.738 594.302 316.678 C 586.013 309.149 579.341 299.629 575.277 289.013 C 570.201 275.751 568.576 261.742 570.029 247.596 C 571.419 234.067 581.108 204.206 591.734 194.665 C 617.344 171.67 633.697 174.164 641.774 171.568 C 645.335 170.424 647.291 166.045 649.206 162.534 C 650.002 161.074 650.657 159.536 651.416 158.054 C 652.492 155.954 653.962 154.441 656.571 155.294 C 659.356 156.205 659.523 158.39 659.391 160.938 C 658.506 178.055 656.378 195.101 656.414 212.27 C 656.418 214.279 656.323 216.37 657.532 218.07 C 660.317 221.988 661.063 226.083 661.105 231.017 C 661.149 236.249 655.841 246.407 657.086 247.773 M 605.029 232.052 C 609.155 231.828 630.429 224.449 647.185 231.806 C 649.454 232.802 649.236 224.333 648.61 221.176 C 646.451 210.288 645.769 199.243 644.946 188.212 C 644.792 186.15 644.505 184.182 642.471 183.092 C 637.265 180.301 609.799 190.362 607.186 195.869 C 606.279 197.781 604.956 198.759 602.956 199.659 C 592.263 204.469 588.03 214.45 583.867 224.403 C 583.75 224.683 583.884 225.06 583.86 225.388 C 583.449 230.986 581.905 236.369 580.385 241.71 C 578.289 249.073 577.184 256.427 579.047 263.944 C 579.47 265.65 579.244 267.151 579.167 268.796 C 578.884 274.801 579.303 280.762 581.327 286.519 C 582.595 282.81 582.153 279.167 581.736 275.416 C 580.955 268.384 580.275 261.475 585.06 254.981 C 586.841 252.563 587.93 248.973 589.711 246.67 C 595.47 239.225 597.866 235.47 605.029 232.052 M 603.467 313.449 C 605.957 316.976 610.082 317.033 614.285 317.394 C 616.803 317.61 626.031 315.552 628.547 315.058 C 650.622 310.725 649.139 300.511 653.862 294.051 C 651.197 295.346 644.515 305.333 627.845 309.718 C 624.086 310.428 607.181 309.363 599.529 301.646 C 596.102 298.191 592.177 295.188 589.369 290.845 C 587.695 293.153 588.694 294.924 589.254 296.797 C 590.924 302.387 597.438 308.385 598.205 310.475 C 599.357 311.932 601.171 312.381 603.467 313.449 M 667.257 186.019 C 667.765 187.765 666.418 182.506 667.257 186.019" stroke-linecap="round" />
</g>
		<g transform="matrix(1 0 0 1 -60.96 21.44)"  >
<path style="stroke: none; stroke-width: 1; stroke-dasharray: none; stroke-linecap: butt; stroke-dashoffset: 0; stroke-linejoin: miter; stroke-miterlimit: 4; fill: rgb(169,20,47); fill-rule: nonzero; opacity: 1;" vector-effect="non-scaling-stroke"  transform=" translate(-299.25, -229.4)" d="M 334.621 169.223 C 322.527 161.735 312.36 163.052 309.273 162.4 C 304.516 161.395 302.933 162.43 303.791 167.181 C 304.939 173.543 306.864 179.762 308.333 186.07 C 310.451 195.168 312.705 204.319 314.159 213.459 C 315.347 220.932 316.161 228.59 317.463 236.088 C 319.374 247.097 319.84 258.043 318.217 269.086 C 318.12 269.745 318.994 288.97 283.463 310.87 C 274.379 316.469 264.487 319.544 254.052 318.593 C 246.595 317.914 239 315.809 233.729 309.303 C 225.201 298.775 216.419 294.745 210.648 266.911 C 208.756 257.783 208.556 248.532 208.325 239.311 C 208.124 231.273 208.623 223.214 208.956 215.17 C 209.095 211.794 212.134 209.656 212.717 206.11 C 213.847 199.23 213.08 192.223 215.205 185.373 C 218.357 175.215 231.776 165.287 242.255 166.238 C 246.307 166.605 249.978 168.69 252.375 171.248 C 259.489 178.837 264.816 187.386 264.396 198.673 C 264.183 204.398 263.044 209.576 259.764 213.984 C 252.659 223.533 243.877 226.173 232.439 222.265 C 228.421 220.892 221.653 230.919 221.168 247.776 C 221.027 252.683 220.795 256.596 221.464 261.144 C 222.932 271.123 226.888 279.738 233.196 287.032 C 236.094 290.383 239.61 293.236 242.156 297.062 C 244.033 299.882 247.788 299.372 250.445 299.425 C 261.667 299.649 272.051 296.237 281.737 290.602 C 283.334 289.674 297.37 281.975 300.159 276.213 C 304.155 267.958 304.903 259.26 304.651 250.155 C 304.476 243.857 305.171 237.753 304.523 231.421 C 303.343 219.898 301.736 210.029 299.097 199.387 C 296.321 188.195 291.961 177.586 288.245 166.741 C 287.1 163.398 285.728 160.205 286.862 156.582 C 287.403 154.852 286.475 153.338 285.965 151.767 C 283.52 144.23 288.331 138.718 296.226 140.315 C 303.795 141.846 311.237 144.014 318.816 145.483 C 330.291 147.706 341.388 152.273 353.154 152.39 C 364.005 152.498 375.211 152.551 383.958 144.135 C 385.572 142.582 387.583 141.997 389.289 143.732 C 391.381 145.86 389.5 147.491 387.928 148.639 C 381.4 153.404 363.304 157.901 359.686 179.475 C 359.322 181.646 356.941 182.549 350.94 182.167 M 233.455 182.581 C 228.55 183.956 226.277 187.729 224.955 192.205 C 224.37 194.184 225.325 201.172 222.44 202.137 C 220.671 202.73 219.535 195.037 221.915 194.968 C 225.843 194.853 226.928 202.84 227.432 205.526 C 227.854 207.77 228.888 210.551 231.154 210.165 C 237.16 209.14 243.761 209.377 248.147 203.672 C 253.17 197.137 252.416 190.898 248.108 184.397 C 245.206 180.018 237.926 178.752 233.455 182.581 M 329.334 154.071 C 326.231 152.989 326.231 152.989 323.252 153.542 C 330.134 156.458 335.098 164.763 351.93 165.482 C 353 165.528 353.677 166.198 354.693 166.077 C 359.564 165.497 362.173 161.763 366.497 158.723 C 362.586 158.723 359.98 158.665 357.378 158.733 C 347.996 158.98 339.085 156.435 329.334 154.071 M 271.751 302.632 C 269.001 303.714 267.07 306.128 264.236 307.084 C 276.401 308.724 282.427 299.276 290.283 293.138 C 284.488 296.497 278.917 300.264 271.751 302.632 M 300.641 149.564 C 298.24 148.773 296.466 146.358 293.08 146.467 C 293.984 148.703 294.691 150.451 295.469 152.373 C 301.177 150.418 305.576 156.99 311.967 154.265 C 308.342 151.764 304.722 151.083 300.641 149.564 M 221.006 228.151 C 221.203 229.588 220.282 223.347 221.006 228.151 M 250.391 308.131 C 246.242 308.956 242.783 306.073 238.787 305.914 C 243.686 309.709 248.775 312.811 255.656 311.848 C 254.456 309.717 252.75 309.063 250.391 308.131 M 247.351 215.429 C 250.456 214.095 253.207 212.387 254.493 209.102 C 249.85 211.299 245.898 214.523 240.414 215.988 C 243.095 217.428 244.792 215.825 247.351 215.429 Z" stroke-linecap="round" />
</g>
		<g transform="matrix(1 0 0 1 -128.04 157.45)"  >
<path style="stroke: none; stroke-width: 1; stroke-dasharray: none; stroke-linecap: butt; stroke-dashoffset: 0; stroke-linejoin: miter; stroke-miterlimit: 4; fill: rgb(169,20,47); fill-rule: nonzero; opacity: 1;" vector-effect="non-scaling-stroke"  transform=" translate(-232.17, -365.41)" d="M 211.001 344.962 C 210.262 354.857 209.781 364.396 209.84 373.956 C 209.874 379.437 210.19 379.665 215.482 378.227 C 221.005 376.727 222.741 378.152 222.521 383.97 C 222.371 387.943 222.287 391.919 222.116 395.891 C 222.042 397.624 222.202 399.201 224.459 400.689 C 227.919 395.745 235.396 395.225 236.955 387.492 C 237.933 382.641 241.894 378.988 246.901 376.959 C 250.765 375.392 253.92 376.55 256.308 379.333 C 258.661 382.075 257.167 385.116 255.346 387.555 C 253.342 390.239 250.73 392.287 247.383 393.309 C 245.754 393.806 243.605 393.782 242.904 396.939 C 251.79 400.636 260.845 396.843 269.643 396.83 C 270.179 399.753 268.527 400.998 266.845 401.405 C 258.493 403.425 250.169 406.105 241.422 403.178 C 235.457 401.181 233.416 401.575 227.945 405.042 C 222.733 408.344 216.935 405.478 216.464 399.054 C 216.14 394.631 215.248 390.228 216 385.536 C 211.939 385.111 210.087 386.358 210.294 390.4 C 210.556 395.532 210.477 400.681 210.622 405.821 C 210.681 407.937 210.676 410.24 208.078 410.456 C 205.365 410.681 204.518 408.459 204.284 406.121 C 203.739 400.689 205.076 395.183 203.874 389.891 C 201.876 388.639 200.528 390.176 199.007 390.576 C 197.445 390.986 195.979 391.107 195.013 389.564 C 193.963 387.888 195.115 386.769 196.219 385.7 C 196.457 385.469 196.705 385.146 196.995 385.085 C 206.481 383.103 204.802 375.473 204.328 369.262 C 203.495 358.352 204.762 347.325 202.436 336.513 C 201.468 332.011 203.348 327.648 203.163 323.162 C 203.081 321.188 204.402 319.877 206.416 320.493 C 208.716 321.196 211.909 321.939 210.766 325.344 C 208.578 331.859 209.426 338.193 211.001 344.962 M 249.273 385.296 C 249.761 384.266 251.68 382.74 249.516 382.24 C 245.906 381.407 245.618 384.646 244.622 387.067 C 246.667 387.804 247.658 386.516 249.273 385.296 Z" stroke-linecap="round" />
</g>
		<g transform="matrix(1 0 0 1 -30.38 183.09)"  >
<path style="stroke: none; stroke-width: 1; stroke-dasharray: none; stroke-linecap: butt; stroke-dashoffset: 0; stroke-linejoin: miter; stroke-miterlimit: 4; fill: rgb(169,20,47); fill-rule: nonzero; opacity: 1;" vector-effect="non-scaling-stroke"  transform=" translate(-329.83, -391.05)" d="M 337.902 399.561 C 334.161 400.798 330.668 400.962 327.194 400.991 C 319.528 401.053 314.051 395.461 314.314 388.01 C 314.447 384.23 318.098 380.673 321.994 381.161 C 327.727 381.88 333.472 382.791 339.072 384.185 C 342.907 385.14 345.274 388.188 345.35 392.25 C 345.435 396.801 341.787 398.156 337.902 399.561 M 326.652 387.439 C 325.034 388.151 322.928 387.414 321.533 389.193 C 321.724 391.718 321.107 394.899 324.825 395.345 C 327.758 395.696 330.854 395.699 333.734 395.13 C 335.605 394.761 338.635 394.73 338.856 392.025 C 339.085 389.223 336.092 389.153 334.263 388.24 C 332.117 387.169 329.796 387.021 326.652 387.439 Z" stroke-linecap="round" />
</g>
		<g transform="matrix(1 0 0 1 -73.14 180.42)"  >
<path style="stroke: none; stroke-width: 1; stroke-dasharray: none; stroke-linecap: butt; stroke-dashoffset: 0; stroke-linejoin: miter; stroke-miterlimit: 4; fill: rgb(169,20,47); fill-rule: nonzero; opacity: 1;" vector-effect="non-scaling-stroke"  transform=" translate(-287.08, -388.38)" d="M 275.956 384.649 C 275.259 383.477 274.569 382.691 274.249 381.776 C 273.718 380.257 273.87 378.626 275.425 377.844 C 277.019 377.043 277.73 378.526 278.521 379.589 C 278.992 380.222 279.567 380.777 280.264 381.555 C 283.637 379.158 286.118 375.848 290.058 374.658 C 295.314 373.071 298.963 374.332 299.827 378.16 C 300.116 379.44 300.663 380.854 299.265 381.808 C 298.205 382.532 297.098 382.137 295.958 381.663 C 289.896 379.138 283.937 383.722 284.622 390.402 C 284.842 392.542 285.608 394.647 285.656 396.778 C 285.734 400.296 283.608 402.699 280.281 402.775 C 277.093 402.848 276.76 399.68 276.477 397.234 C 276.007 393.169 278.384 389.009 275.956 384.649 Z" stroke-linecap="round" />
</g>
</g>
</g>
</svg>