<?xml version="1.0" encoding="utf-8"?>
<svg viewBox="0 0 225 343" xmlns="http://www.w3.org/2000/svg">
  <path opacity="1.000000" stroke="none" d="M 9.752 264.362 C 8.858 249.191 13.971 219.666 18.93 209.763 C 23.416 200.804 29.365 192.944 35.914 185.356 C 42.482 177.746 48.762 169.864 55.949 162.847 C 62.029 156.91 70.136 153.04 72.603 154.045 C 74.752 154.922 74.941 156.78 75.13 158.957 C 76.059 169.675 76.653 180.651 80.651 190.619 C 82.815 196.014 84.279 202.493 88.038 206.545 C 93.66 212.605 98.539 219.262 104.013 225.412 C 107.899 229.777 111.696 234.407 115.117 239.228 C 117.217 242.189 116.668 244.046 112.67 245.299 C 104.625 247.821 96.13 250.182 91.907 258.594 C 88.499 265.383 85.66 271.955 88.905 280.323 C 90.35 284.048 92.94 287.222 93.835 291.157 C 94.14 292.498 95.431 293.404 96.866 293.405 C 104.894 293.416 112.46 292.889 119.472 287.523 C 132.095 277.864 140.378 266.201 144.626 250.53 C 148.299 236.979 151.296 223.219 155.536 209.809 C 156.887 205.537 157.057 201.42 153.212 197.976 C 151.092 196.077 152.465 194.208 153.796 192.283 C 156.946 187.728 161.28 183.742 160.605 177.291 C 160.425 175.579 160.312 174.128 159.308 172.709 C 157.204 169.733 156.37 166.405 156.873 162.762 C 156.963 162.106 157.181 161.271 156.89 160.791 C 153.476 155.147 156.791 150.335 158.69 145.341 C 161.792 137.186 161.715 128.374 163.873 120.019 C 164.103 119.126 164.084 117.549 163.557 117.178 C 158.83 113.86 160.99 109.382 161.539 105.338 C 163.322 92.198 161.694 79.152 161.018 66.052 C 160.434 54.764 160.729 43.433 160.487 32.124 C 160.407 28.401 164.177 27.121 165.12 23.539 C 164.563 21.891 161.025 20.826 162.833 17.733 C 164.573 14.757 167.464 14.888 170.27 14.634 C 179.457 13.803 188.515 15.687 196.622 19.173 C 205.418 22.955 208.853 26.042 204.305 36.02 C 202.745 39.443 203.175 43.448 202.746 47.083 C 201.059 61.38 198.53 75.599 198.275 90.075 C 198.059 102.346 197.129 114.604 196.515 126.868 C 196.49 127.367 196.342 127.899 196.461 128.361 C 198.72 137.063 197.99 146.004 198.296 154.825 C 198.603 163.662 198.612 172.325 194.747 181.074 C 191.72 187.927 191.935 196.263 191.832 204.054 C 191.768 208.845 191.793 213.642 190.867 218.361 C 190.326 221.12 189.742 223.569 191.196 226.503 C 192.832 229.806 190.352 233.415 190.091 236.969 C 189.564 244.136 189.105 251.464 186.648 258.47 C 183.286 268.055 177.717 277.481 171.002 284.662 C 165.823 290.2 167.485 291.428 159.778 298.334 C 149.742 307.326 143.734 312.609 135.903 316.129 C 125.262 320.913 114.967 329.371 95.119 329.197 C 58.079 328.872 52.346 325.879 37.283 314.453 C 13.784 296.629 12.027 281.886 10.992 279.095 M 47.65 294.647 C 53.293 300.373 49.303 298.604 64.388 305.187 C 71.713 308.384 84.96 313.951 97.399 312.72 C 107.221 311.748 134.008 307.769 154.635 284.834 C 155.876 283.454 160.558 277.83 161.833 276.087 C 163.985 273.143 166.002 270.02 167.538 266.722 C 175.012 250.68 179.914 233.882 182.259 216.304 C 183.543 206.681 183.784 206.713 173.723 206.854 C 166.646 206.953 165.995 207.871 165.323 214.884 C 164.468 223.799 161.612 233.901 158.638 242.124 C 154.361 253.947 151.906 263.219 147.074 274.867 C 146.405 276.48 140.763 286.2 128.012 295.653 C 116.302 304.334 104.473 305.352 91.191 302.031 C 81.076 299.502 71.571 281.588 75.542 270.315 C 79.584 258.841 87.75 250.651 94.481 241.297 C 96.312 238.752 97.174 237.266 94.507 235.255 C 87.151 229.709 83.702 221.092 78.26 214.061 C 75.438 210.414 73.111 205.802 71.482 200.981 C 69.476 195.042 68.24 188.537 63.851 183.224 C 56.728 188.427 54.302 196.681 49.157 202.91 C 44.747 208.248 43.597 215.493 40.645 221.619 C 36.753 229.694 33.978 237.656 33.348 246.583 C 32.49 258.736 25.521 266.004 37.318 278.785 M 166.452 152.879 C 165.507 154.57 164.409 155.977 165.707 157.84 C 166.911 159.568 168.736 159.71 170.629 159.551 C 173.605 159.301 176.591 158.756 179.555 158.856 C 183.476 158.988 184.987 157.163 185.078 153.523 C 185.177 149.552 184.685 145.608 185.595 141.602 C 187.278 134.187 187.845 126.201 187.238 119.04 C 186.393 109.076 189.103 99.778 189.753 90.219 C 190.161 84.215 191.106 77.831 191.99 71.663 C 193.573 60.615 192.924 49.263 196.585 38.477 C 196.932 37.454 196.94 36.029 196.493 35.08 C 195.226 32.393 195.171 29.729 196.381 26.747 C 189.071 24.864 182.157 25.769 175.339 26.646 C 171.989 27.076 170.479 29.969 170.481 33.319 C 170.484 37.145 170.82 40.974 170.719 44.795 C 170.538 51.568 171.994 58.397 170.61 65.09 C 169.48 70.555 169.617 76.084 169.959 81.438 C 170.798 94.567 170.523 107.668 170.313 120.783 C 170.258 124.157 166.141 144.286 168.093 146.103 M 183.896 194.744 C 183.993 189.444 183.989 184.16 184.482 178.851 C 185.498 167.903 182.769 167.017 172.996 168.765 C 175.293 175.301 170.611 180.245 168.879 185.961 C 165.242 197.967 165.092 197.922 177.057 199.764 C 177.221 199.789 177.394 199.793 177.547 199.849 C 181.62 201.36 183.489 199.63 183.896 194.744" style="transform-box: fill-box; transform-origin: 50% 50%;" transform="matrix(0.997564, -0.069756, 0.069756, 0.997564, -0.000001, 0)"/>
  <path d="M 523.506 319.989 C 522.586 322.233 521.915 324.14 519.405 325.114 L 518.83 325.337 L 518.748 324.714 C 518.449 322.444 519.108 320.729 520.087 319.334 C 521.065 317.94 522.342 316.774 523.293 315.398 L 523.803 314.66 L 524.154 315.469 C 524.634 316.573 524.543 317.497 524.274 318.187 C 524.002 318.88 523.614 319.384 523.533 319.898 L 523.527 319.937 L 523.506 319.989 Z M 523.342 317.822 C 523.57 317.24 523.583 317.132 523.536 316.738 C 522.642 317.858 521.822 318.602 520.906 319.908 C 519.991 321.212 519.532 322.276 519.663 323.956 C 521.349 323.208 521.63 321.934 522.567 319.642 C 522.739 318.961 523.116 318.401 523.342 317.822 Z M 512.931 349.924 C 512.91 353.629 512.082 356.452 510.351 358.955 L 509.54 360.128 L 509.442 358.703 C 509.189 355.016 509.193 351.296 510.68 347.77 L 510.841 347.389 L 511.22 347.474 C 512.103 347.672 512.608 348.142 512.759 348.61 C 512.909 349.075 512.848 349.535 512.92 349.82 L 512.931 349.863 L 512.931 349.924 Z M 511.807 348.917 C 511.721 348.649 512.046 348.564 511.449 348.52 C 510.156 351.671 510.208 353.981 510.349 357.07 C 511.437 355.066 511.93 353.528 511.931 349.962 C 511.864 349.546 511.895 349.187 511.807 348.917 Z M 579.095 363.129 C 578.199 363.678 577.4 363.792 576.978 363.537 C 576.735 363.391 576.534 363.069 576.471 362.816 C 576.411 362.576 576.416 362.258 576.458 361.996 C 577.154 358.214 579.77 355.45 581.482 352.41 C 581.828 351.89 582.485 351.529 583.079 351.527 C 583.658 351.525 584.369 351.82 584.879 352.291 C 585.39 352.831 585.645 353.519 585.586 354.078 C 585.528 354.638 585.169 355.228 584.742 355.63 C 582.429 357.707 580.827 360.273 579.255 362.962 L 579.192 363.07 L 579.095 363.129 Z M 584.071 354.888 C 584.403 354.603 584.555 354.328 584.592 353.974 C 584.629 353.619 584.565 353.345 584.179 353.005 C 583.839 352.644 583.48 352.526 583.083 352.527 C 582.702 352.529 582.478 352.588 582.352 352.903 C 580.565 356.044 578.007 358.646 577.443 362.166 C 577.409 362.345 577.411 362.454 577.441 362.574 C 577.468 362.68 577.448 362.653 577.494 362.681 C 577.651 362.775 577.841 362.768 578.449 362.36 C 580.013 359.69 581.67 357.07 584.071 354.888 Z M 515.778 395.203 C 516.142 391.101 513.466 387.676 515.069 383.183 L 515.549 381.84 L 516.009 383.203 C 518.493 390.554 520.747 397.225 523.001 403.897 L 523.45 405.226 L 522.269 404.484 C 518.574 402.165 517.595 398.48 515.844 395.491 L 515.764 395.354 L 515.778 395.203 Z M 521.568 402.778 C 519.54 396.777 518.048 392.36 515.564 385.009 C 514.951 388.38 517.038 390.667 516.783 395.119 C 518.502 398.182 518.099 400.766 521.568 402.778 Z M 644.194 219.461 C 646.844 223.995 644.909 227.988 645.274 231.609 C 646.403 244.128 647.83 256.72 647.098 269.381 C 647.027 270.259 647.381 271.171 647.508 272.189 C 647.636 273.211 647.452 274.386 646.411 275.534 L 645.631 276.394 L 645.553 275.218 C 644.134 253.69 640.32 232.32 640.661 210.526 L 640.688 208.769 L 641.584 210.268 C 643.406 213.318 642.401 216.886 644.194 219.461 Z M 641.638 212.974 C 641.591 232.233 644.548 249.457 646.114 269.081 C 646.816 256.586 645.401 244.149 644.278 231.699 C 643.965 227.807 645.97 224.034 643.347 219.991 C 641.496 217.01 643.402 215.62 641.638 212.973 L 641.638 212.974 Z M 556.635 297.46 C 565.445 313.323 576.687 326.834 585.504 342.073 L 586.023 342.97 L 585.005 342.819 C 580.495 342.15 577.598 338.92 575.456 336.065 C 568.359 326.599 561.756 316.75 555.253 306.872 C 553.636 304.378 553.159 301.396 551.012 299.323 C 550.485 298.761 550.129 297.781 550.18 296.91 C 550.231 296.04 550.733 295.068 551.613 294.523 C 552.376 294.114 553.086 293.965 553.618 294.06 C 554.173 294.159 554.666 294.531 554.998 294.927 C 555.644 295.698 556.026 296.772 556.575 297.374 L 556.607 297.41 L 556.635 297.46 Z M 554.231 295.569 C 553.97 295.258 553.773 295.103 553.442 295.044 C 553.087 294.981 552.714 295.042 552.099 295.398 C 551.429 295.715 551.219 296.282 551.178 296.968 C 551.138 297.653 551.312 298.247 551.717 298.614 C 554.005 300.959 554.547 304.02 556.088 306.322 C 562.589 316.196 569.175 326.021 576.256 335.465 C 578.375 338.291 580.504 340.809 584.098 341.646 C 575.411 326.851 564.646 313.927 555.784 297.987 C 555.165 297.233 554.77 296.212 554.231 295.569 Z M 640.495 178.093 C 639.731 169.936 639.639 162.318 638.3 155.443 C 637.567 151.651 637.451 149.146 638.47 147.465 C 639.493 145.776 641.699 144.869 645.242 144.075 C 651.875 142.598 658.386 140.196 665.353 139.644 C 665.65 139.66 665.845 139.748 665.901 139.725 C 668.114 139.809 670.581 139.403 672.907 139.585 C 675.24 139.767 677.509 140.645 679.139 143.133 C 681.893 147.708 679.729 153.073 678.415 157.079 C 671.754 177.315 672.487 198.265 671.681 219.132 C 671.156 232.694 671.798 246.312 671.729 259.93 C 671.698 265.561 671.019 271.161 670.914 276.74 C 670.725 286.655 670.288 296.501 671.392 306.404 C 672.325 314.828 671.864 323.382 672.121 331.824 C 672.252 336.126 672.608 340.427 672.864 344.744 C 672.966 346.839 672.182 348.807 670.317 349.891 C 663.949 353.342 657.034 354.591 649.86 353.838 C 649.175 353.756 648.591 353.533 648.215 353.234 C 647.824 352.923 647.551 352.452 647.432 352.022 C 647.2 351.181 647.367 350.155 647.542 349.374 C 651.081 333.629 650.193 317.433 652.019 301.42 C 652.428 297.907 651.964 294.266 651.781 290.621 C 651.712 289.215 651.817 287.78 652.792 286.526 L 652.944 286.331 L 653.204 286.347 C 655.804 286.508 657.254 286.078 657.856 285.053 C 658.46 284.025 658.157 282.493 656.681 280.121 C 654.992 277.336 654.589 274.821 655.246 271.843 C 656.206 267.766 654.9 263.716 653.93 259.786 C 650.467 245.712 650.725 231.391 650.416 217.201 C 650.064 201.058 650.523 184.91 650.324 168.784 C 650.302 166.831 650.016 164.85 650.295 163.01 C 650.575 161.163 651.52 159.39 653.774 157.986 C 654.317 157.698 654.587 157.139 654.618 156.495 C 654.633 156.181 654.587 155.953 654.436 155.698 C 654.281 155.437 654.105 155.261 653.735 155.129 C 651.238 154.123 649.261 152.695 647.163 151.172 C 646.587 150.737 646.244 150.638 645.931 150.672 C 645.653 150.701 645.537 150.806 645.348 151.114 C 644.94 151.781 644.813 152.885 644.795 153.866 C 644.584 164.652 643.491 175.385 644.649 186.107 C 644.708 186.827 644.517 187.533 644.334 189.225 L 644.172 190.72 L 643.409 189.429 C 640.917 185.21 641.506 181.392 640.514 178.191 L 640.5 178.145 L 640.495 178.093 Z M 643.543 187.583 C 643.644 186.91 643.731 186.74 643.655 186.214 C 642.497 175.388 643.587 164.592 643.796 153.847 C 643.817 152.818 643.978 151.438 644.495 150.593 C 644.768 150.145 645.273 149.737 645.824 149.677 C 646.34 149.622 647.034 149.857 647.751 150.363 C 649.849 151.886 651.718 153.255 654.106 154.2 C 654.624 154.424 655.065 154.798 655.296 155.188 C 655.53 155.583 655.638 156.105 655.617 156.543 C 655.576 157.406 655.014 158.367 654.291 158.842 C 652.224 160.045 651.54 161.469 651.283 163.16 C 651.026 164.857 651.296 166.754 651.323 168.772 C 651.523 184.918 651.064 201.062 651.416 217.179 C 651.725 231.39 651.453 245.601 654.901 259.546 C 655.863 263.446 657.171 267.727 656.221 272.064 C 655.57 274.853 655.911 276.996 657.533 279.598 C 659.073 282.134 659.49 284.246 658.718 285.56 C 657.943 286.878 656.039 287.446 653.402 287.356 C 652.702 288.263 652.711 289.209 652.78 290.572 C 652.959 294.179 653.421 297.901 653.013 301.534 C 651.19 317.463 652.068 333.712 648.518 349.593 C 648.348 350.346 648.22 351.117 648.396 351.755 C 648.482 352.065 648.59 352.254 648.837 352.451 C 649.1 352.66 649.413 352.794 649.966 352.843 C 656.999 353.602 663.621 352.411 669.838 349.013 C 671.475 348.191 671.999 346.692 671.865 344.803 C 671.61 340.498 671.254 336.183 671.122 331.855 C 670.865 323.37 671.329 314.856 670.398 306.515 C 669.292 296.534 669.726 286.623 669.914 276.721 C 670.023 271.092 670.702 265.499 670.729 259.925 C 670.798 246.333 670.157 232.699 670.682 219.094 C 671.487 198.263 670.779 177.177 677.465 156.767 C 678.794 152.721 681.01 147.779 678.293 143.666 C 676.915 141.381 675.03 140.753 672.829 140.582 C 670.622 140.409 668.176 140.802 665.865 140.724 C 665.592 140.689 665.454 140.6 665.431 140.641 C 658.598 141.163 652.158 143.555 645.46 145.051 C 641.997 145.82 640.194 146.549 639.325 147.983 C 638.451 149.425 638.557 151.531 639.282 155.252 C 640.629 162.216 640.728 169.853 641.486 177.952 C 642.473 181.356 641.963 184.186 643.543 187.583 Z M 577.544 352.046 C 570.49 364.448 567.936 377.16 568.085 390.62 C 568.099 392.486 567.716 394.347 567.458 396.14 C 567.332 396.993 567.331 397.797 567.53 398.528 C 567.726 399.251 568.035 399.786 568.698 400.141 C 572.521 402.419 574.375 406.105 576.017 409.724 C 577.519 413.147 580.59 414.866 583.621 415.938 C 590.702 418.461 598.179 419.198 605.195 417.809 C 612.21 416.42 618.631 412.954 623.603 406.913 C 627.786 401.871 633.354 398.246 636.372 392.471 C 641.193 383.386 642.604 373.099 646.007 363.384 C 646.575 361.771 647.24 360.498 648.143 359.695 C 649.056 358.882 650.316 358.503 651.879 358.56 C 654.388 358.677 656.786 358.98 659.212 358.559 C 660.151 358.412 661.076 358.536 661.704 358.983 C 662.329 359.429 662.762 360.284 662.896 361.335 C 663.037 362.636 663.277 363.679 664.433 364.244 C 664.792 364.326 664.955 364.253 665.205 364.077 C 665.457 363.899 665.65 363.634 665.888 363.294 C 666.125 362.954 666.395 362.549 666.739 362.249 C 667.088 361.945 667.634 361.73 668.237 361.747 L 668.598 361.756 L 668.684 362.131 C 669.243 364.571 669.07 366.704 668.144 368.22 C 667.214 369.742 665.44 370.753 663.095 371.101 C 661.933 371.242 661.338 371.638 660.867 372.268 C 660.392 372.902 660.145 373.726 659.882 374.767 C 658.476 380.313 657.735 386.115 654.806 391.404 C 648.192 403.215 637.865 410.519 625.952 415.97 C 616.694 420.202 607.217 423.993 597.287 426.256 C 588.35 428.289 579.227 429.909 569.976 429.954 L 569.527 429.956 L 569.478 429.518 C 569.397 428.796 569.496 428.191 569.708 427.784 C 569.929 427.357 570.3 427.042 570.62 426.826 C 571.259 426.395 571.722 426.292 571.895 425.813 C 571.091 424.279 569.521 424.123 567.546 423.905 C 557.557 422.78 549.275 418.29 541.189 412.403 C 535.586 408.322 530.354 404.369 526.989 398.186 C 526.725 397.668 526.135 397.083 525.935 396.335 C 524.425 388.827 521.997 381.264 521.772 373.614 C 521.591 367.109 520.549 360.43 521.828 353.698 C 523.599 344.509 524.009 334.911 526.657 325.912 C 527.952 321.546 530.68 316.78 534.171 313.094 C 535.549 311.644 536.982 310.262 537.984 308.64 C 538.511 307.796 538.983 306.809 539.667 306.083 C 540.359 305.349 541.407 304.883 542.825 305.068 C 543.948 305.262 545.04 305.743 545.856 306.423 C 546.674 307.106 547.312 308.084 547.6 309.151 C 549.908 318.402 557.584 323.835 563.208 330.958 C 567.47 336.367 571.958 341.475 577.71 345.353 C 578.531 345.907 579.043 346.548 579.242 347.136 C 579.449 347.746 579.365 348.426 579.163 348.979 C 578.768 350.064 577.913 351.059 577.576 351.978 L 577.564 352.011 L 577.544 352.046 Z M 578.224 348.638 C 578.387 348.187 578.431 347.859 578.295 347.456 C 578.151 347.03 577.849 346.653 577.151 346.183 C 571.293 342.233 566.701 337.006 562.423 331.576 C 556.901 324.551 549.133 318.933 546.631 309.399 C 546.412 308.486 545.925 307.783 545.215 307.191 C 544.503 306.597 543.662 306.211 542.662 306.055 C 541.547 305.824 540.967 306.161 540.395 306.769 C 539.815 307.384 539.387 308.277 538.833 309.169 C 537.755 310.885 536.259 312.347 534.896 313.783 C 531.476 317.373 528.866 321.936 527.616 326.195 C 524.988 335.074 524.589 344.624 522.81 353.887 C 521.534 360.446 522.585 367.017 522.772 373.586 C 522.972 381.096 525.391 388.575 526.915 396.137 C 526.962 396.615 527.502 397.061 527.869 397.711 C 531.095 403.731 536.18 407.518 541.777 411.595 C 549.809 417.446 557.851 421.844 567.656 422.911 C 569.655 423.133 571.732 423.566 572.866 425.524 L 572.975 425.712 L 572.903 425.895 C 572.523 426.86 571.731 427.282 571.179 427.655 C 570.904 427.84 570.729 427.987 570.595 428.244 C 570.452 428.521 570.427 428.645 570.431 428.951 C 579.438 428.863 588.151 427.309 597.065 425.281 C 606.921 423.041 616.3 419.283 625.536 415.06 C 637.369 409.656 647.467 402.563 653.933 390.917 C 656.802 385.81 657.496 380.129 658.912 374.521 C 659.181 373.459 659.489 372.44 660.066 371.669 C 660.646 370.894 661.599 370.323 662.956 370.11 C 665.12 369.825 666.485 369.017 667.29 367.698 C 668.1 366.373 668.346 365.033 667.799 362.75 C 667.655 362.79 667.638 362.792 667.397 363.003 C 667.152 363.217 666.952 363.518 666.708 363.867 C 666.464 364.216 666.164 364.624 665.782 364.894 C 665.397 365.165 664.808 365.306 664.165 365.207 L 664.092 365.195 L 664.029 365.158 C 662.573 364.303 662.061 362.834 661.902 361.446 C 661.822 360.572 661.565 360.112 661.123 359.797 C 660.683 359.483 660.164 359.4 659.379 359.545 C 656.809 359.969 654.305 359.673 651.833 359.559 C 650.442 359.479 649.567 359.766 648.808 360.442 C 648.037 361.128 647.49 362.169 646.95 363.715 C 643.571 373.333 642.13 383.688 637.256 392.938 C 634.07 398.898 628.445 402.608 624.373 407.55 C 619.255 413.712 612.55 417.372 605.39 418.79 C 598.231 420.207 590.486 419.43 583.286 416.88 C 580.174 415.77 576.814 413.787 575.106 410.137 C 573.47 406.532 571.82 403.07 568.195 401.004 C 567.361 400.486 566.8 399.657 566.565 398.79 C 566.332 397.931 566.338 396.919 566.468 395.997 C 566.732 394.173 567.109 392.389 567.085 390.63 C 566.946 377.067 569.549 364.131 576.657 351.582 C 577.084 350.533 577.888 349.561 578.224 348.637 L 578.224 348.638 Z M 573.253 441.68 C 569.786 441.145 566.43 439.892 563.121 438.851 C 550.451 434.844 540.329 426.719 530.385 418.487 C 529.224 417.526 528.148 416.469 526.887 415.96 C 516.505 411.537 512.521 401.97 508.985 392.745 C 507.881 389.853 507.112 385.494 509.174 381.784 C 510.679 379.266 510.276 376.507 508.897 374.103 C 502.01 361.721 506.669 349.527 509.257 337.595 C 510.085 333.807 511.688 330.412 510.626 326.646 C 510.419 325.867 510.14 324.686 510.46 323.872 C 512.938 318.722 515.296 313.514 517.708 308.332 C 518.306 307.051 519.05 305.16 520.356 304.187 C 521.021 303.691 521.953 303.399 522.973 303.574 C 523.951 303.743 524.498 304.043 525.413 304.649 C 523.912 299.064 525.876 296.914 528.364 294.05 C 530.768 291.282 533.894 289.021 535.686 285.662 C 535.477 285.527 535.169 285.324 534.89 285.054 C 534.606 284.779 534.297 284.357 534.159 283.873 C 534.026 283.406 534.044 282.764 534.27 282.085 L 534.363 281.807 L 534.662 281.759 C 538.48 281.149 542.512 281.129 546.147 284.182 C 547.324 285.198 548.404 286.078 549.519 286.301 C 550.62 286.521 551.633 286.184 552.866 284.42 C 553.387 283.745 554.212 283.259 555.036 283.15 C 555.853 283.043 556.83 283.271 557.651 283.788 C 558.702 284.507 559.264 285.448 559.332 286.401 C 559.4 287.339 559.183 287.949 558.851 288.767 C 561.371 289.005 563.065 290.094 564.402 291.809 C 565.74 293.526 566.507 295.676 567.075 297.337 C 568.792 302.386 571.732 306.725 574.071 311.394 C 578.567 320.379 583.85 328.967 590.879 336.365 C 595.609 341.41 596.829 348.275 598.843 354.4 C 599.079 355.17 599.067 355.924 598.842 356.465 C 598.612 357.019 598.116 357.496 597.591 357.757 C 596.57 358.263 595.031 358.217 593.824 357.648 C 592.627 357.04 591.792 356.969 590.992 357.217 C 590.194 357.464 589.542 358.026 588.814 358.895 C 585.51 362.818 582.469 366.809 581.257 371.828 C 580.965 373.015 580.592 374.21 579.587 375.127 C 573.966 379.828 573.84 386.558 574.9 392.66 C 575.773 397.871 579.057 402.256 583.644 404.834 C 588.235 407.414 593.963 408.094 599.874 405.622 C 606.836 402.759 612.649 398.323 617.886 392.879 C 618.73 392.01 619.679 390.467 620.785 389.429 C 621.347 388.901 622.038 388.452 622.733 388.35 C 623.43 388.248 624.264 388.524 625.024 389.19 C 625.829 389.958 626.23 390.796 626.229 391.528 C 626.228 392.267 625.854 393.023 625.377 393.646 C 624.44 394.872 622.942 395.971 622.118 397.029 C 615.467 405.424 608.518 410.115 598.984 413.153 C 603.871 412.857 610.285 411.221 613.92 408.007 C 622.731 400.304 629.923 391.385 634.538 380.545 C 635.433 378.456 635.967 376.317 635.707 373.978 C 634.515 362.55 636.032 351.027 633.233 339.84 C 632.68 337.55 632.944 335.026 633.091 332.719 C 633.147 331.868 633.299 330.846 633.743 330.085 C 634.192 329.313 635.099 328.739 636.356 328.747 C 638.364 328.892 639.316 328.191 639.891 327.141 C 640.467 326.091 640.513 324.774 640.365 323.593 C 639.153 313.632 641.656 303.878 640.922 294.158 C 639.449 274.289 637.872 254.438 635.659 234.636 C 634.816 227.018 635.905 219.357 635.496 211.775 C 635.385 209.644 634.967 207.316 635.154 205.028 C 635.341 202.739 636.213 200.412 638.54 198.42 C 638.952 198.184 638.898 197.286 638.731 196.041 C 638.563 194.786 638.191 193.379 637.856 192.319 C 635.126 183.635 635.818 174.396 632.54 166.024 C 631.9 164.277 632.24 162.207 632.132 160.448 C 632.081 159.491 632.208 158.34 632.229 157.358 C 632.25 156.383 632.255 155.702 631.86 155.463 C 628.881 152.878 628.4 150.184 628.883 147.647 C 629.365 145.119 630.693 142.663 631.172 140.295 C 631.403 139.185 631.818 138.016 632.49 137.108 C 633.165 136.197 634.21 135.472 635.531 135.213 C 637.016 134.988 638.165 135.396 638.911 136.166 C 639.646 136.927 640.126 138.067 640.536 139.215 C 640.927 140.39 641.565 140.969 642.256 141.087 C 642.579 141.142 642.791 141.096 643.08 140.886 C 643.389 140.663 643.635 140.341 643.839 139.756 C 644.912 136.917 646.807 135.26 648.903 134.267 C 650.998 133.274 653.347 132.845 655.394 132.29 C 658.604 131.421 661.599 130.398 664.555 129.013 C 668.405 127.24 672.323 127.325 675.345 128.95 C 678.364 130.575 680.643 133.817 681.385 138.048 C 681.42 138.396 681.569 138.574 681.785 139.005 C 682.754 138.582 682.53 138.187 682.692 137.376 C 682.856 136.563 682.86 135.596 683.206 134.739 C 683.767 133.444 684.656 132.104 686.318 131.783 C 687.386 131.707 688.126 132.15 688.527 132.733 C 688.919 133.305 689.131 133.997 689.449 134.485 C 691.377 137.678 690.384 141.468 692.454 144.308 C 692.737 144.751 692.874 145.297 692.823 145.736 C 692.772 146.175 692.545 146.653 692.262 146.997 C 691.707 147.669 690.665 148.145 689.733 148.105 C 688.238 147.972 687.246 148.193 686.47 148.641 C 685.714 149.078 685.273 149.676 684.932 150.469 C 684.243 152.071 684.224 154.163 683.93 155.795 C 683.459 158.367 683.106 161.045 683.488 163.784 C 683.693 163.753 683.822 163.791 683.705 163.74 C 684.144 162.757 684.265 161.3 684.764 160.134 C 685.018 159.54 685.435 158.943 686.014 158.614 C 686.579 158.294 687.413 158.191 688.399 158.38 C 689.423 158.602 690.192 159.012 690.637 159.517 C 691.097 160.038 691.304 160.751 691.328 161.411 C 691.377 162.699 690.869 164.182 690.656 165.465 C 688.235 179.858 685.766 194.235 682.85 208.557 C 681.303 216.145 680.338 223.984 680.815 232.127 C 681.34 241.147 681.71 250.13 683.424 258.915 C 685.483 269.496 685.856 280.217 687.791 290.766 C 690.169 303.747 692.342 317.021 691.414 330.451 C 691.31 331.941 691.061 333.559 690.482 334.962 C 690.1 335.871 689.616 336.985 688.91 337.768 C 688.194 338.562 687.072 339.037 685.701 338.72 C 684.988 338.506 684.445 338.134 684.177 337.715 C 683.902 337.285 683.828 336.713 683.863 336.228 C 683.931 335.28 684.336 334.285 684.373 333.51 C 685.212 320.373 683.202 307.425 681.588 294.4 C 681.048 289.979 681.648 286.172 679.313 282.125 C 677.821 290.113 679.709 297.294 679.681 305.311 C 679.615 318.866 681.967 332.233 683.305 345.734 C 683.625 349.033 684.716 352.133 685.112 355.456 C 685.241 356.564 685.461 357.866 685.265 359.039 C 685.068 360.222 684.326 361.367 682.777 362.049 C 681.183 362.646 679.843 362.39 678.922 361.519 C 678.026 360.672 677.786 360.043 677.344 359.005 C 674.318 369.569 671.464 377.539 666.306 386.14 C 664.938 388.416 663.415 390.607 661.886 392.762 C 657.634 398.723 655.877 405.843 653.045 412.573 C 649.923 419.92 643.344 425.79 636.777 426.087 C 619.974 426.667 604.934 435.335 588.059 435.712 C 585.545 435.751 583.697 435.094 581.532 436.187 C 586.557 437.557 591.216 436.045 596.488 436.586 C 602.05 437.213 607.104 434.889 612.658 434.889 C 617.956 434.916 623.126 433.922 628.328 432.837 C 633.531 431.758 638.614 429.414 644.913 429.394 L 645.713 429.391 L 645.365 430.107 C 643.893 433.137 641.928 434.477 639.755 435.463 C 629.1 440.268 617.748 442.185 606.271 443.08 C 603.098 443.321 600.159 444.255 596.729 445.224 C 588.068 446.974 580.804 442.818 573.252 441.68 L 573.253 441.68 Z M 596.505 444.25 C 599.914 443.286 602.908 442.346 606.194 442.083 C 617.626 441.193 628.812 439.319 639.343 434.551 C 641.446 433.605 642.851 432.703 644.1 430.404 C 638.377 430.575 633.844 432.701 628.532 433.816 C 623.322 434.903 618.048 435.907 612.654 435.889 C 607.31 435.843 602.205 438.165 596.382 437.58 C 591.314 437.019 585.866 438.717 580.181 436.813 L 579.212 436.488 L 580.057 435.93 C 582.963 434.013 585.684 434.773 588.039 434.712 C 604.674 434.402 619.706 425.734 636.74 425.087 C 642.992 424.919 649.128 419.355 652.124 412.184 C 654.931 405.528 656.741 398.313 661.07 392.184 C 662.597 390.032 664.099 387.874 665.448 385.626 C 670.563 377.118 673.781 367.828 676.799 357.29 L 677.237 355.76 L 677.753 357.266 C 678.297 358.858 678.85 360.075 679.609 360.793 C 680.343 361.486 681.104 361.695 682.402 361.122 C 683.709 360.647 684.111 359.878 684.278 358.875 C 684.447 357.862 684.252 356.706 684.118 355.572 C 683.748 352.357 682.656 349.248 682.31 345.833 C 680.977 332.369 678.622 318.951 678.681 305.307 C 678.725 297.418 676.657 289.379 678.586 280.714 L 678.838 279.577 L 679.485 280.54 C 682.656 285.261 682.039 289.988 682.58 294.277 C 684.193 307.287 686.205 320.328 685.371 333.574 C 685.3 334.5 684.918 335.501 684.86 336.3 C 684.832 336.687 684.86 336.927 685.02 337.177 C 685.188 337.439 685.413 337.618 685.969 337.757 C 686.988 338.105 687.578 337.752 688.168 337.098 C 688.767 336.433 689.181 335.479 689.56 334.575 C 690.106 333.292 690.317 331.833 690.417 330.382 C 691.35 317.068 689.184 303.918 686.808 290.946 C 684.864 280.325 684.493 269.609 682.443 259.107 C 680.719 250.246 680.342 241.197 679.817 232.185 C 679.342 223.953 680.317 215.984 681.87 208.358 C 684.784 194.051 687.249 179.69 689.67 165.299 C 689.903 163.938 690.371 162.558 690.329 161.448 C 690.309 160.909 690.205 160.539 689.887 160.178 C 689.555 159.801 689.081 159.53 688.197 159.359 C 687.381 159.176 686.912 159.255 686.507 159.484 C 686.117 159.706 685.897 160.025 685.683 160.527 C 685.245 161.552 685.101 163.001 684.622 164.137 C 684.331 164.488 683.75 164.664 683.275 164.875 L 682.697 165.132 L 682.589 164.5 C 682.067 161.446 682.472 158.213 682.946 155.615 C 683.233 154.069 683.247 151.854 684.013 150.074 C 684.4 149.175 685.042 148.312 685.97 147.775 C 686.88 147.25 688.175 146.984 689.815 147.108 C 690.485 147.199 691.067 146.875 691.49 146.361 C 691.696 146.111 691.797 145.9 691.83 145.621 C 691.862 145.342 691.837 145.141 691.631 144.877 C 689.489 141.626 690.471 137.819 688.604 135.02 C 688.232 134.416 688.013 133.752 687.702 133.299 C 687.4 132.859 687.164 132.611 686.451 132.774 C 685.155 132.851 684.658 133.894 684.124 135.135 C 683.82 135.785 683.857 136.655 683.673 137.572 C 683.489 138.492 682.986 139.478 681.785 140.143 L 681.32 140.401 L 681.103 139.896 C 680.819 139.235 680.516 138.764 680.399 138.215 C 679.743 134.19 677.696 131.35 674.871 129.831 C 672.047 128.312 668.603 128.193 664.979 129.919 C 661.972 131.324 658.896 132.377 655.656 133.255 C 653.568 133.819 651.31 134.233 649.331 135.171 C 647.353 136.108 645.706 137.469 644.778 140.1 C 644.509 140.807 644.101 141.382 643.667 141.696 C 643.215 142.024 642.595 142.159 642.089 142.072 C 641.122 141.908 640.112 140.921 639.594 139.551 C 639.194 138.429 638.802 137.492 638.192 136.862 C 637.592 136.242 636.923 135.946 635.705 136.198 C 634.589 136.37 633.878 136.914 633.294 137.703 C 632.708 138.494 632.364 139.454 632.151 140.497 C 631.624 143 630.319 145.454 629.866 147.834 C 629.414 150.206 629.696 152.418 632.504 154.698 C 633.074 155.27 633.251 156.345 633.229 157.379 C 633.207 158.407 633.077 159.519 633.131 160.39 C 633.231 162.266 632.858 164.184 633.472 165.662 C 636.783 174.252 636.102 183.521 638.809 192.017 C 639.152 193.1 639.546 194.591 639.722 195.908 C 639.901 197.235 639.772 198.584 639.182 199.187 C 637.004 200.965 636.328 202.95 636.151 205.109 C 635.974 207.27 636.376 209.529 636.495 211.722 C 636.9 219.401 635.808 227.033 636.653 234.525 C 638.867 254.343 640.446 274.212 641.919 294.084 C 642.639 303.966 640.134 313.695 641.357 323.471 C 641.509 324.731 641.452 326.374 640.768 327.622 C 640.083 328.871 638.621 329.806 636.309 329.746 C 635.362 329.649 634.951 329.997 634.607 330.588 C 634.257 331.19 634.14 331.973 634.089 332.783 C 633.94 335.113 633.662 337.485 634.204 339.599 C 637.013 350.971 635.508 362.563 636.701 373.874 C 636.95 376.383 636.379 378.771 635.458 380.938 C 630.773 391.895 623.45 400.994 614.578 408.76 C 610.744 412.08 600.371 414.857 595.819 414.005 L 593.588 413.587 L 595.79 413.029 C 606.573 410.297 614.793 404.701 621.333 396.409 C 622.253 395.259 623.73 394.154 624.583 393.039 C 625.002 392.491 625.228 392.043 625.229 391.526 C 625.23 391.002 625.036 390.533 624.347 389.926 C 623.78 389.371 623.364 389.268 622.879 389.339 C 622.391 389.411 621.967 389.69 621.47 390.157 C 620.458 391.108 619.515 392.62 618.606 393.572 C 613.313 399.067 607.33 403.619 600.256 406.546 C 594.097 409.053 587.915 408.381 583.154 405.706 C 578.389 403.028 574.879 398.254 573.914 392.83 C 572.847 386.628 573.141 379.433 578.937 374.367 C 579.785 373.698 579.997 372.763 580.286 371.589 C 581.585 366.388 584.728 362.194 588.05 358.251 C 588.833 357.326 589.706 356.569 590.696 356.262 C 591.684 355.956 592.9 356.094 594.266 356.751 C 595.261 357.269 596.331 357.265 597.146 356.861 C 597.538 356.667 597.766 356.45 597.918 356.082 C 598.076 355.702 598.105 355.308 597.893 354.712 C 595.861 348.515 594.754 341.838 590.154 337.053 C 583.062 329.573 577.694 320.865 573.177 311.842 C 570.87 307.229 567.905 302.827 566.129 297.661 C 565.563 296.005 564.855 294.016 563.614 292.424 C 562.372 290.831 560.737 289.681 558.099 289.727 L 557.29 289.741 L 557.649 289.008 C 558.127 288.033 558.389 287.223 558.335 286.472 C 558.282 285.734 557.993 285.172 557.104 284.625 C 556.451 284.178 555.816 284.056 555.167 284.142 C 554.526 284.226 554.035 284.476 553.675 285.009 C 552.211 286.947 550.681 287.553 549.323 287.281 C 547.979 287.013 546.682 285.965 545.494 284.939 C 542.195 282.008 538.869 282.096 535.12 282.699 C 535.022 283.063 535.026 283.267 535.121 283.6 C 535.211 283.915 535.362 284.118 535.586 284.336 C 535.806 284.549 536.042 284.702 536.251 284.837 C 536.355 284.904 536.466 284.976 536.546 285.041 C 536.593 285.08 536.668 285.154 536.709 285.215 C 536.768 285.303 536.792 285.546 536.782 285.703 L 536.781 285.718 L 536.753 285.773 C 534.842 289.502 531.528 291.932 529.119 294.706 C 526.714 297.474 525.151 300.496 526.685 305.724 L 527.147 307.299 L 525.884 306.244 C 524.612 305.181 523.64 304.704 522.804 304.56 C 522.01 304.423 521.487 304.591 520.954 304.989 C 519.86 305.804 519.225 307.444 518.615 308.754 C 516.204 313.931 513.845 319.145 511.361 324.306 C 511.07 324.762 511.382 325.598 511.592 326.388 C 512.626 330.491 511.029 334.12 510.234 337.807 C 507.623 349.815 502.911 361.657 509.768 373.612 C 511.207 376.195 511.608 379.449 510.041 382.282 C 508.037 385.65 508.839 389.581 509.919 392.387 C 513.451 401.602 517.161 410.886 527.273 415.038 C 528.688 415.648 529.89 416.78 531.022 417.716 C 540.961 425.945 550.915 433.977 563.421 437.897 C 566.756 438.947 570.037 440.182 573.404 440.692 C 581.13 441.891 588.205 446.046 596.505 444.25 Z" style="fill: none;"/>
</svg>