<?xml version="1.0" encoding="UTF-8" standalone="no" ?>
<!DOCTYPE svg PUBLIC "-//W3C//DTD SVG 1.1//EN" "http://www.w3.org/Graphics/SVG/1.1/DTD/svg11.dtd">
<svg xmlns="http://www.w3.org/2000/svg" xmlns:xlink="http://www.w3.org/1999/xlink" version="1.1" width="1080" height="687" viewBox="0 0 1080 687" xml:space="preserve">
<desc>Created with Fabric.js 5.2.4</desc>
<defs>
</defs>
<rect x="0" y="0" width="100%" height="100%" fill="transparent"></rect>
<g transform="matrix(0 0 0 0 0 0)" id="cd08937b-15d7-4f57-9336-6cb1f10f65b8"  >
</g>
<g transform="matrix(1 0 0 1 540 343.5)" id="b6529073-b5ec-4ff7-b4e5-fd3e61c1a56c"  >
<rect style="stroke: none; stroke-width: 1; stroke-dasharray: none; stroke-linecap: butt; stroke-dashoffset: 0; stroke-linejoin: miter; stroke-miterlimit: 4; fill: rgb(255,255,255); fill-rule: nonzero; opacity: 1; visibility: hidden;" vector-effect="non-scaling-stroke"  x="-540" y="-343.5" rx="0" ry="0" width="1080" height="687" />
</g>
<g transform="matrix(1.53 0 0 1.53 154.65 247.88)"  >
<path style="stroke: none; stroke-width: 1; stroke-dasharray: none; stroke-linecap: butt; stroke-dashoffset: 0; stroke-linejoin: miter; stroke-miterlimit: 4; fill: rgb(169,20,47); fill-rule: nonzero; opacity: 1;" vector-effect="non-scaling-stroke"  transform=" translate(-109.31, -162.83)" d="M 11.081 255.377 C 10.187 240.206 15.3 210.681 20.259 200.778 C 24.745 191.819 30.694 183.959 37.243 176.371 C 43.811 168.761 50.091 160.879 57.278 153.862 C 63.358 147.925 71.465 144.055 73.932 145.06 C 76.081 145.937 76.27 147.795 76.459 149.972 C 77.388 160.69 77.982 171.666 81.98 181.634 C 84.144 187.029 85.608 193.508 89.367 197.56 C 94.989 203.62 99.868 210.277 105.342 216.427 C 109.228 220.792 113.025 225.422 116.446 230.243 C 118.546 233.204 117.997 235.061 113.999 236.314 C 105.954 238.836 97.459 241.197 93.236 249.609 C 89.828 256.398 86.989 262.97 90.234 271.338 C 91.679 275.063 94.269 278.237 95.164 282.172 C 95.469 283.513 96.76 284.419 98.195 284.42 C 106.223 284.431 113.789 283.904 120.801 278.538 C 133.424 268.879 141.707 257.216 145.955 241.545 C 149.628 227.994 152.625 214.234 156.865 200.824 C 158.216 196.552 158.386 192.435 154.541 188.991 C 152.421 187.092 153.794 185.223 155.125 183.298 C 158.275 178.743 162.609 174.757 161.934 168.306 C 161.754 166.594 161.641 165.143 160.637 163.724 C 158.533 160.748 157.699 157.42 158.202 153.777 C 158.292 153.121 158.51 152.286 158.219 151.806 C 154.805 146.162 158.12 141.35 160.019 136.356 C 163.121 128.201 163.044 119.389 165.202 111.034 C 165.432 110.141 165.413 108.564 164.886 108.193 C 160.159 104.875 162.319 100.397 162.868 96.353 C 164.651 83.213 163.023 70.167 162.347 57.067 C 161.763 45.779 162.058 34.448 161.816 23.139 C 161.736 19.416 165.506 18.136 166.449 14.554 C 165.892 12.906 162.354 11.841 164.162 8.748 C 165.902 5.772 168.793 5.903 171.599 5.649 C 180.786 4.818 189.844 6.702 197.951 10.188 C 206.747 13.97 210.182 17.057 205.634 27.035 C 204.074 30.458 204.504 34.463 204.075 38.098 C 202.388 52.395 199.859 66.614 199.604 81.09 C 199.388 93.361 198.458 105.619 197.844 117.883 C 197.819 118.382 197.671 118.914 197.79 119.376 C 200.049 128.078 199.319 137.019 199.625 145.84 C 199.932 154.677 199.941 163.34 196.076 172.089 C 193.049 178.942 193.264 187.278 193.161 195.069 C 193.097 199.86 193.122 204.657 192.196 209.376 C 191.655 212.135 191.071 214.584 192.525 217.518 C 194.161 220.821 191.681 224.43 191.42 227.984 C 190.893 235.151 190.434 242.479 187.977 249.485 C 184.615 259.07 179.046 268.496 172.331 275.677 C 167.152 281.215 168.814 282.443 161.107 289.349 C 151.071 298.341 145.063 303.624 137.232 307.144 C 126.591 311.928 116.296 320.386 96.448 320.212 C 59.408 319.887 53.675 316.894 38.612 305.468 C 15.113 287.644 13.356 272.901 12.321 270.11 M 48.979 285.662 C 54.622 291.388 50.632 289.619 65.717 296.202 C 73.042 299.399 86.289 304.966 98.728 303.735 C 108.55 302.763 135.337 298.784 155.964 275.849 C 157.205 274.469 161.887 268.845 163.162 267.102 C 165.314 264.158 167.331 261.035 168.867 257.737 C 176.341 241.695 181.243 224.897 183.588 207.319 C 184.872 197.696 185.113 197.728 175.052 197.869 C 167.975 197.968 167.324 198.886 166.652 205.899 C 165.797 214.814 162.941 224.916 159.967 233.139 C 155.69 244.962 153.235 254.234 148.403 265.882 C 147.734 267.495 142.092 277.215 129.341 286.668 C 117.631 295.349 105.802 296.367 92.52 293.046 C 82.405 290.517 72.9 272.603 76.871 261.33 C 80.913 249.856 89.079 241.666 95.81 232.312 C 97.641 229.767 98.503 228.281 95.836 226.27 C 88.48 220.724 85.031 212.107 79.589 205.076 C 76.767 201.429 74.44 196.817 72.811 191.996 C 70.805 186.057 69.569 179.552 65.18 174.239 C 58.057 179.442 55.631 187.696 50.486 193.925 C 46.076 199.263 44.926 206.508 41.974 212.634 C 38.082 220.709 35.307 228.671 34.677 237.598 C 33.819 249.751 26.85 257.019 38.647 269.8 M 167.781 143.894 C 166.836 145.585 165.738 146.992 167.036 148.855 C 168.24 150.583 170.065 150.725 171.958 150.566 C 174.934 150.316 177.92 149.771 180.884 149.871 C 184.805 150.003 186.316 148.178 186.407 144.538 C 186.506 140.567 186.014 136.623 186.924 132.617 C 188.607 125.202 189.174 117.216 188.567 110.055 C 187.722 100.091 190.432 90.793 191.082 81.234 C 191.49 75.23 192.435 68.846 193.319 62.678 C 194.902 51.63 194.253 40.278 197.914 29.492 C 198.261 28.469 198.269 27.044 197.822 26.095 C 196.555 23.408 196.5 20.744 197.71 17.762 C 190.4 15.879 183.486 16.784 176.668 17.661 C 173.318 18.091 171.808 20.984 171.81 24.334 C 171.813 28.16 172.149 31.989 172.048 35.81 C 171.867 42.583 173.323 49.412 171.939 56.105 C 170.809 61.57 170.946 67.099 171.288 72.453 C 172.127 85.582 171.852 98.683 171.642 111.798 C 171.587 115.172 167.47 135.301 169.422 137.118 M 185.225 185.759 C 185.322 180.459 185.318 175.175 185.811 169.866 C 186.827 158.918 184.098 158.032 174.325 159.78 C 176.622 166.316 171.94 171.26 170.208 176.976 C 166.571 188.982 166.421 188.937 178.386 190.779 C 178.55 190.804 178.723 190.808 178.876 190.864 C 182.949 192.375 184.818 190.645 185.225 185.759" stroke-linecap="round" />
</g>
<g transform="matrix(1.53 0 0 1.53 685.99 255.11)"  >
<path style="stroke: none; stroke-width: 1; stroke-dasharray: none; stroke-linecap: butt; stroke-dashoffset: 0; stroke-linejoin: miter; stroke-miterlimit: 4; fill: rgb(169,20,47); fill-rule: nonzero; opacity: 1;" vector-effect="non-scaling-stroke"  paint-order="stroke"  transform=" translate(-455.6, -167.55)" d="M 435.508 245.011 C 433.926 246.033 433.483 245.264 433.635 244.383 C 434.266 240.732 436.852 238.049 438.602 234.958 C 439.074 234.124 440.364 234.118 441.214 234.95 C 442.111 235.83 441.851 236.875 441.091 237.561 C 438.735 239.691 437.084 242.316 435.508 245.011 Z M 412.883 180.005 C 421.719 195.907 432.963 209.421 441.756 224.625 C 437.401 224.04 435.304 220.296 432.541 218.067 C 415.471 204.301 416.297 198.663 409.795 188.787 C 408.216 186.389 410.267 183.48 408.05 181.27 C 407.117 180.341 406.991 178.124 408.541 177.263 C 411.296 175.731 411.695 178.646 412.883 180.005 Z M 497.678 60.348 C 496.915 52.211 496.819 44.569 495.476 37.65 C 494.018 30.137 495.03 28.428 502.036 26.865 C 508.701 25.378 515.177 22.981 522.077 22.445 C 522.237 22.432 522.403 22.52 522.568 22.526 C 527.092 22.689 532.394 20.928 535.401 25.702 C 538.136 30.045 535.947 35.199 534.625 39.225 C 527.951 59.548 528.816 80.572 527.866 101.415 C 527.341 112.93 527.983 107.073 527.914 142.23 C 527.903 147.832 527.206 153.429 527.099 159.033 C 526.911 168.941 526.475 178.819 527.58 188.762 C 528.512 197.144 528.049 205.678 528.307 214.142 C 528.438 218.457 528.794 222.764 529.049 227.076 C 529.167 229.067 528.513 230.801 526.762 231.754 C 520.47 235.179 513.702 236.398 506.598 235.642 C 504.123 235.379 504.371 233.32 504.715 231.785 C 508.259 215.973 507.376 199.75 509.201 183.779 C 509.61 180.206 507.378 171.59 506.865 165.853 C 506.115 157.467 506.446 152.927 506.257 149.977 C 505.769 142.339 506.59 144.183 505.624 140.268 C 502.168 126.258 502.433 111.993 502.124 97.792 C 501.772 81.662 498.677 63.662 497.678 60.348 Z M 433.794 234.102 C 426.713 246.577 424.126 259.416 424.27 272.927 C 424.289 274.74 423.909 276.562 423.648 278.37 C 423.392 280.146 423.634 282.002 425.131 282.874 C 428.856 285.047 430.608 288.621 432.247 292.232 C 433.852 295.769 437.067 297.62 440.138 298.711 C 454.42 303.784 470.583 301.737 480.673 289.534 C 484.801 284.542 490.397 280.874 493.499 275.007 C 498.346 265.839 499.773 255.518 503.163 245.852 C 504.272 242.692 505.587 241.224 508.541 241.361 C 511.031 241.477 513.482 241.776 515.98 241.354 C 517.705 241.062 518.869 241.768 519.084 243.692 C 519.234 245.037 522.963 244.395 524.882 244.547 C 525.988 249.27 524.22 252.274 519.71 252.907 C 517.192 253.261 516.614 254.842 516.082 256.946 C 514.671 262.523 513.953 268.264 511.055 273.463 C 504.514 285.191 494.302 292.389 482.429 297.817 C 473.182 302.044 463.754 305.819 453.861 308.07 C 444.936 310.101 435.867 311.715 426.659 311.756 C 426.328 309.177 428.642 309.664 429.108 308.057 C 428.156 306.231 426.273 305.93 424.286 305.71 C 414.389 304.614 406.227 300.17 398.168 294.301 C 392.568 290.222 387.41 286.352 384.114 280.251 C 383.798 279.666 383.234 279.151 383.11 278.538 C 381.593 271.003 379.17 263.482 378.957 255.902 C 378.773 249.365 377.726 242.74 379.004 236.095 C 380.779 226.869 381.184 217.295 383.821 208.355 C 385.094 204.043 387.763 199.379 391.218 195.741 C 392.589 194.298 394.053 192.876 395.093 191.206 C 396.175 189.471 396.895 187.447 399.428 187.864 C 401.551 188.213 403.294 189.597 403.801 191.577 C 406.206 200.97 413.928 206.495 419.501 213.569 C 423.771 218.989 428.311 224.156 434.115 228.07 C 437.154 230.119 434.552 232.119 433.794 234.102 Z M 444.181 323.504 C 447.604 322.537 454.91 323.71 458.139 323.458 C 469.594 322.565 471.033 321.568 481.626 316.782 C 483.764 315.816 500.214 304.813 501.598 301.885 C 495.404 301.882 489.827 306.691 484.569 307.789 C 479.363 308.875 442.299 317.564 444.734 317.514 C 461.489 317.17 476.525 308.503 493.444 307.889 C 499.853 307.657 506.211 301.939 509.269 294.68 C 512.089 287.988 513.872 280.82 518.163 274.775 C 519.691 272.622 521.204 270.447 522.562 268.185 C 527.698 259.631 530.942 250.281 533.965 239.73 C 535.072 242.958 536.383 245.058 539.275 243.887 C 542.13 242.732 541.563 240.058 541.3 237.816 C 540.917 234.547 539.825 231.442 539.493 228.086 C 538.157 214.603 535.804 201.211 535.866 187.611 C 535.902 179.658 533.828 171.673 535.758 163.126 C 536.141 128.781 537.495 98.366 539.045 90.759 C 541.96 76.445 544.427 62.076 546.848 47.684 C 547.293 45.04 548.8 41.96 544.983 41.171 C 541.379 40.427 541.766 44.122 540.849 46.24 C 540.761 46.441 540.314 46.486 539.766 46.716 C 539.246 43.737 539.65 40.592 540.123 38.007 C 540.704 34.828 547.609 20.051 545.712 17.054 C 545.021 15.963 544.851 14.341 543.069 14.581 C 541.591 14.78 540.897 15.971 540.35 17.239 C 539.7 18.747 540.415 20.911 538.246 21.998 C 537.938 21.295 537.653 20.882 537.577 20.434 C 536.179 12.178 528.926 8.269 521.452 11.768 C 518.471 13.163 515.435 14.201 512.21 15.074 C 508.075 16.194 502.996 16.76 500.993 22.23 C 500.047 24.815 497.658 24.231 496.75 21.685 C 495.94 19.415 495.006 17.53 492.303 18.008 C 489.866 18.439 488.791 20.545 488.346 22.698 C 487.341 27.569 483.08 32.517 488.867 37.383 C 489.832 38.193 489.212 40.894 489.316 42.721 C 489.421 44.539 489.064 46.532 489.691 48.145 C 492.986 56.626 492.299 65.88 495.017 74.47 C 495.696 76.613 496.548 80.266 495.546 81.105 C 491.041 84.876 492.45 89.727 492.681 94.05 C 493.087 101.681 491.997 109.327 492.841 116.883 C 495.055 136.693 496.633 156.552 498.106 176.423 C 498.832 186.224 496.329 195.965 497.546 205.834 C 497.847 208.275 497.337 211.754 493.018 211.548 C 490.814 211.444 490.381 213.392 490.275 215.053 C 490.127 217.372 489.856 219.82 490.404 222.022 C 493.208 233.301 491.696 244.859 492.889 256.228 C 493.143 258.652 492.591 260.916 491.683 263.044 C 487.033 273.942 492.385 270.672 489.395 267.921 C 486.741 265.479 479.174 279.471 477.421 281.292 C 472.156 286.762 471.426 286.824 464.408 289.719 C 452.338 294.699 432.93 285.682 431.092 275.047 C 430.029 268.895 430.239 261.932 435.947 257.049 C 436.874 256.256 437.166 255.191 437.456 254.01 C 438.712 248.9 441.804 244.808 445.117 240.875 C 446.628 239.081 448.167 238.237 450.73 239.502 C 452.932 240.588 455.949 239.588 455.053 236.858 C 453.03 230.697 451.866 223.926 447.201 219.011 C 440.141 211.572 434.815 202.924 430.309 193.92 C 427.986 189.279 425.033 184.908 423.287 179.801 C 422.153 176.484 420.339 171.523 414.784 171.529 C 415.765 169.515 404.871 168.904 402.505 166.862 C 399.038 163.871 393.078 167.585 392.992 167.85 C 389.324 175.127 376.054 188.253 374.847 190.845 C 372.435 196.025 367.585 208.035 367.794 208.819 C 368.842 212.754 367.242 216.266 366.43 220.003 C 363.831 231.973 363.288 244.018 363.932 258.384 C 364.459 270.13 365.045 272.019 366.137 274.868 C 369.671 284.088 373.518 293.513 383.765 297.801 C 385.103 298.361 386.255 299.439 387.388 300.404 C 395.078 306.957 397.474 309.343 419.956 320.676 C 423.066 322.244 426.597 322.965 430.013 323.488 C 437.652 324.657 435.697 325.282 444.181 323.504 Z" stroke-linecap="round" />
</g>
<g transform="matrix(1.53 0 0 1.53 968.22 368.18)"  >
<path style="stroke: none; stroke-width: 1; stroke-dasharray: none; stroke-linecap: butt; stroke-dashoffset: 0; stroke-linejoin: miter; stroke-miterlimit: 4; fill: rgb(169,20,47); fill-rule: nonzero; opacity: 1;" vector-effect="non-scaling-stroke"  transform=" translate(-639.48, -241.05)" d="M 657.086 247.773 C 658.62 252.11 642.015 258.824 638.487 257.548 C 633.304 255.673 643.607 247.562 640.527 242.275 C 638.516 238.822 619.926 243.133 614.848 242.397 C 607.242 241.295 605.265 246.986 601.106 249.689 C 597.952 251.738 597.188 257.74 595.541 261.302 C 594.487 263.584 594.856 276.436 596.029 278.09 C 601.448 285.727 608.121 292.032 616.641 296.184 C 619.971 297.806 622.223 302.297 626.991 300.083 C 629.247 299.036 631.87 298.394 633.666 296.817 C 639.006 292.127 649.11 287.4 650.691 285.658 C 658.729 276.804 663.469 269.665 666.034 263.471 C 673.771 244.791 671.065 229.422 670.816 224.988 C 670.551 220.257 670.77 215.344 669.122 210.725 C 668.899 210.102 668.576 209.373 668.71 208.787 C 670.503 200.959 667.309 194.427 663.74 187.823 C 662.026 184.652 660.425 180.471 663.544 177.556 C 667.154 174.182 671.796 171.501 677.056 172.828 C 679.428 173.425 681.492 173.495 683.805 173.206 C 688.529 172.618 689.367 173.698 688.781 178.336 C 687.739 186.586 681.027 199.91 680.676 202.97 C 679.094 216.76 679.152 230.435 684.249 243.578 C 685.466 246.714 683.646 249.318 684.122 252.361 C 685.806 263.109 690.185 273.045 692.837 283.484 C 693.536 286.234 694.375 288.916 694.43 291.79 C 694.47 293.877 695.013 295.762 697.515 296.474 C 700.702 294.888 701.085 291.011 703.56 288.82 C 704.825 287.7 705.578 285.109 707.809 286.69 C 709.557 287.928 709.896 290.144 708.846 292.121 C 707.21 295.202 705.835 298.547 703.223 300.924 C 699.134 304.645 699.444 308.952 700.925 313.571 C 701.077 314.046 701.357 314.495 701.425 314.977 C 701.658 316.649 701.944 318.535 699.989 319.3 C 697.961 320.094 696.876 318.492 696.186 316.958 C 694.148 312.421 691.298 308.252 690.215 303.273 C 689.603 300.46 688.552 297.817 685.198 297.066 C 683.487 296.682 682.947 295.142 682.565 293.697 C 681.19 288.494 675.646 286.63 673.899 280.9 C 669.598 288.271 668.416 289.93 663.863 295.717 C 660.697 301.806 659.567 304.155 657.219 306.038 C 649.634 312.121 646.311 320.592 636.737 323.983 C 621.023 329.548 606.477 327.738 594.302 316.678 C 586.013 309.149 579.341 299.629 575.277 289.013 C 570.201 275.751 568.576 261.742 570.029 247.596 C 571.419 234.067 581.108 204.206 591.734 194.665 C 617.344 171.67 633.697 174.164 641.774 171.568 C 645.335 170.424 647.291 166.045 649.206 162.534 C 650.002 161.074 650.657 159.536 651.416 158.054 C 652.492 155.954 653.962 154.441 656.571 155.294 C 659.356 156.205 659.523 158.39 659.391 160.938 C 658.506 178.055 656.378 195.101 656.414 212.27 C 656.418 214.279 656.323 216.37 657.532 218.07 C 660.317 221.988 661.063 226.083 661.105 231.017 C 661.149 236.249 655.841 246.407 657.086 247.773 M 605.029 232.052 C 609.155 231.828 630.429 224.449 647.185 231.806 C 649.454 232.802 649.236 224.333 648.61 221.176 C 646.451 210.288 645.769 199.243 644.946 188.212 C 644.792 186.15 644.505 184.182 642.471 183.092 C 637.265 180.301 609.799 190.362 607.186 195.869 C 606.279 197.781 604.956 198.759 602.956 199.659 C 592.263 204.469 588.03 214.45 583.867 224.403 C 583.75 224.683 583.884 225.06 583.86 225.388 C 583.449 230.986 581.905 236.369 580.385 241.71 C 578.289 249.073 577.184 256.427 579.047 263.944 C 579.47 265.65 579.244 267.151 579.167 268.796 C 578.884 274.801 579.303 280.762 581.327 286.519 C 582.595 282.81 582.153 279.167 581.736 275.416 C 580.955 268.384 580.275 261.475 585.06 254.981 C 586.841 252.563 587.93 248.973 589.711 246.67 C 595.47 239.225 597.866 235.47 605.029 232.052 M 603.467 313.449 C 605.957 316.976 610.082 317.033 614.285 317.394 C 616.803 317.61 626.031 315.552 628.547 315.058 C 650.622 310.725 649.139 300.511 653.862 294.051 C 651.197 295.346 644.515 305.333 627.845 309.718 C 624.086 310.428 607.181 309.363 599.529 301.646 C 596.102 298.191 592.177 295.188 589.369 290.845 C 587.695 293.153 588.694 294.924 589.254 296.797 C 590.924 302.387 597.438 308.385 598.205 310.475 C 599.357 311.932 601.171 312.381 603.467 313.449 M 667.257 186.019 C 667.765 187.765 666.418 182.506 667.257 186.019" stroke-linecap="round" />
</g>
<g transform="matrix(1.53 0 0 1.53 446.09 350.32)"  >
<path style="stroke: none; stroke-width: 1; stroke-dasharray: none; stroke-linecap: butt; stroke-dashoffset: 0; stroke-linejoin: miter; stroke-miterlimit: 4; fill: rgb(169,20,47); fill-rule: nonzero; opacity: 1;" vector-effect="non-scaling-stroke"  transform=" translate(-299.25, -229.4)" d="M 334.621 169.223 C 322.527 161.735 312.36 163.052 309.273 162.4 C 304.516 161.395 302.933 162.43 303.791 167.181 C 304.939 173.543 306.864 179.762 308.333 186.07 C 310.451 195.168 312.705 204.319 314.159 213.459 C 315.347 220.932 316.161 228.59 317.463 236.088 C 319.374 247.097 319.84 258.043 318.217 269.086 C 318.12 269.745 318.994 288.97 283.463 310.87 C 274.379 316.469 264.487 319.544 254.052 318.593 C 246.595 317.914 239 315.809 233.729 309.303 C 225.201 298.775 216.419 294.745 210.648 266.911 C 208.756 257.783 208.556 248.532 208.325 239.311 C 208.124 231.273 208.623 223.214 208.956 215.17 C 209.095 211.794 212.134 209.656 212.717 206.11 C 213.847 199.23 213.08 192.223 215.205 185.373 C 218.357 175.215 231.776 165.287 242.255 166.238 C 246.307 166.605 249.978 168.69 252.375 171.248 C 259.489 178.837 264.816 187.386 264.396 198.673 C 264.183 204.398 263.044 209.576 259.764 213.984 C 252.659 223.533 243.877 226.173 232.439 222.265 C 228.421 220.892 221.653 230.919 221.168 247.776 C 221.027 252.683 220.795 256.596 221.464 261.144 C 222.932 271.123 226.888 279.738 233.196 287.032 C 236.094 290.383 239.61 293.236 242.156 297.062 C 244.033 299.882 247.788 299.372 250.445 299.425 C 261.667 299.649 272.051 296.237 281.737 290.602 C 283.334 289.674 297.37 281.975 300.159 276.213 C 304.155 267.958 304.903 259.26 304.651 250.155 C 304.476 243.857 305.171 237.753 304.523 231.421 C 303.343 219.898 301.736 210.029 299.097 199.387 C 296.321 188.195 291.961 177.586 288.245 166.741 C 287.1 163.398 285.728 160.205 286.862 156.582 C 287.403 154.852 286.475 153.338 285.965 151.767 C 283.52 144.23 288.331 138.718 296.226 140.315 C 303.795 141.846 311.237 144.014 318.816 145.483 C 330.291 147.706 341.388 152.273 353.154 152.39 C 364.005 152.498 375.211 152.551 383.958 144.135 C 385.572 142.582 387.583 141.997 389.289 143.732 C 391.381 145.86 389.5 147.491 387.928 148.639 C 381.4 153.404 363.304 157.901 359.686 179.475 C 359.322 181.646 356.941 182.549 350.94 182.167 M 233.455 182.581 C 228.55 183.956 226.277 187.729 224.955 192.205 C 224.37 194.184 225.325 201.172 222.44 202.137 C 220.671 202.73 219.535 195.037 221.915 194.968 C 225.843 194.853 226.928 202.84 227.432 205.526 C 227.854 207.77 228.888 210.551 231.154 210.165 C 237.16 209.14 243.761 209.377 248.147 203.672 C 253.17 197.137 252.416 190.898 248.108 184.397 C 245.206 180.018 237.926 178.752 233.455 182.581 M 329.334 154.071 C 326.231 152.989 326.231 152.989 323.252 153.542 C 330.134 156.458 335.098 164.763 351.93 165.482 C 353 165.528 353.677 166.198 354.693 166.077 C 359.564 165.497 362.173 161.763 366.497 158.723 C 362.586 158.723 359.98 158.665 357.378 158.733 C 347.996 158.98 339.085 156.435 329.334 154.071 M 271.751 302.632 C 269.001 303.714 267.07 306.128 264.236 307.084 C 276.401 308.724 282.427 299.276 290.283 293.138 C 284.488 296.497 278.917 300.264 271.751 302.632 M 300.641 149.564 C 298.24 148.773 296.466 146.358 293.08 146.467 C 293.984 148.703 294.691 150.451 295.469 152.373 C 301.177 150.418 305.576 156.99 311.967 154.265 C 308.342 151.764 304.722 151.083 300.641 149.564 M 221.006 228.151 C 221.203 229.588 220.282 223.347 221.006 228.151 M 250.391 308.131 C 246.242 308.956 242.783 306.073 238.787 305.914 C 243.686 309.709 248.775 312.811 255.656 311.848 C 254.456 309.717 252.75 309.063 250.391 308.131 M 247.351 215.429 C 250.456 214.095 253.207 212.387 254.493 209.102 C 249.85 211.299 245.898 214.523 240.414 215.988 C 243.095 217.428 244.792 215.825 247.351 215.429 Z" stroke-linecap="round" />
</g>
<g transform="matrix(3.66 0 0 3.66 601.63 497.05)"  >
<path style="stroke: none; stroke-width: 1; stroke-dasharray: none; stroke-linecap: butt; stroke-dashoffset: 0; stroke-linejoin: miter; stroke-miterlimit: 4; fill: rgb(169,20,47); fill-rule: nonzero; opacity: 1;" vector-effect="non-scaling-stroke"  transform=" translate(-232.17, -365.41)" d="M 211.001 344.962 C 210.262 354.857 209.781 364.396 209.84 373.956 C 209.874 379.437 210.19 379.665 215.482 378.227 C 221.005 376.727 222.741 378.152 222.521 383.97 C 222.371 387.943 222.287 391.919 222.116 395.891 C 222.042 397.624 222.202 399.201 224.459 400.689 C 227.919 395.745 235.396 395.225 236.955 387.492 C 237.933 382.641 241.894 378.988 246.901 376.959 C 250.765 375.392 253.92 376.55 256.308 379.333 C 258.661 382.075 257.167 385.116 255.346 387.555 C 253.342 390.239 250.73 392.287 247.383 393.309 C 245.754 393.806 243.605 393.782 242.904 396.939 C 251.79 400.636 260.845 396.843 269.643 396.83 C 270.179 399.753 268.527 400.998 266.845 401.405 C 258.493 403.425 250.169 406.105 241.422 403.178 C 235.457 401.181 233.416 401.575 227.945 405.042 C 222.733 408.344 216.935 405.478 216.464 399.054 C 216.14 394.631 215.248 390.228 216 385.536 C 211.939 385.111 210.087 386.358 210.294 390.4 C 210.556 395.532 210.477 400.681 210.622 405.821 C 210.681 407.937 210.676 410.24 208.078 410.456 C 205.365 410.681 204.518 408.459 204.284 406.121 C 203.739 400.689 205.076 395.183 203.874 389.891 C 201.876 388.639 200.528 390.176 199.007 390.576 C 197.445 390.986 195.979 391.107 195.013 389.564 C 193.963 387.888 195.115 386.769 196.219 385.7 C 196.457 385.469 196.705 385.146 196.995 385.085 C 206.481 383.103 204.802 375.473 204.328 369.262 C 203.495 358.352 204.762 347.325 202.436 336.513 C 201.468 332.011 203.348 327.648 203.163 323.162 C 203.081 321.188 204.402 319.877 206.416 320.493 C 208.716 321.196 211.909 321.939 210.766 325.344 C 208.578 331.859 209.426 338.193 211.001 344.962 M 249.273 385.296 C 249.761 384.266 251.68 382.74 249.516 382.24 C 245.906 381.407 245.618 384.646 244.622 387.067 C 246.667 387.804 247.658 386.516 249.273 385.296 Z" stroke-linecap="round" />
</g>
<g transform="matrix(3.66 0 0 3.66 959.77 591.31)"  >
<path style="stroke: none; stroke-width: 1; stroke-dasharray: none; stroke-linecap: butt; stroke-dashoffset: 0; stroke-linejoin: miter; stroke-miterlimit: 4; fill: rgb(169,20,47); fill-rule: nonzero; opacity: 1;" vector-effect="non-scaling-stroke"  transform=" translate(-329.83, -391.05)" d="M 337.902 399.561 C 334.161 400.798 330.668 400.962 327.194 400.991 C 319.528 401.053 314.051 395.461 314.314 388.01 C 314.447 384.23 318.098 380.673 321.994 381.161 C 327.727 381.88 333.472 382.791 339.072 384.185 C 342.907 385.14 345.274 388.188 345.35 392.25 C 345.435 396.801 341.787 398.156 337.902 399.561 M 326.652 387.439 C 325.034 388.151 322.928 387.414 321.533 389.193 C 321.724 391.718 321.107 394.899 324.825 395.345 C 327.758 395.696 330.854 395.699 333.734 395.13 C 335.605 394.761 338.635 394.73 338.856 392.025 C 339.085 389.223 336.092 389.153 334.263 388.24 C 332.117 387.169 329.796 387.021 326.652 387.439 Z" stroke-linecap="round" />
</g>
<g transform="matrix(3.66 0 0 3.66 803.09 581.51)"  >
<path style="stroke: none; stroke-width: 1; stroke-dasharray: none; stroke-linecap: butt; stroke-dashoffset: 0; stroke-linejoin: miter; stroke-miterlimit: 4; fill: rgb(169,20,47); fill-rule: nonzero; opacity: 1;" vector-effect="non-scaling-stroke"  transform=" translate(-287.08, -388.38)" d="M 275.956 384.649 C 275.259 383.477 274.569 382.691 274.249 381.776 C 273.718 380.257 273.87 378.626 275.425 377.844 C 277.019 377.043 277.73 378.526 278.521 379.589 C 278.992 380.222 279.567 380.777 280.264 381.555 C 283.637 379.158 286.118 375.848 290.058 374.658 C 295.314 373.071 298.963 374.332 299.827 378.16 C 300.116 379.44 300.663 380.854 299.265 381.808 C 298.205 382.532 297.098 382.137 295.958 381.663 C 289.896 379.138 283.937 383.722 284.622 390.402 C 284.842 392.542 285.608 394.647 285.656 396.778 C 285.734 400.296 283.608 402.699 280.281 402.775 C 277.093 402.848 276.76 399.68 276.477 397.234 C 276.007 393.169 278.384 389.009 275.956 384.649 Z" stroke-linecap="round" />
</g>
</svg>