<svg width="32" height="32" viewBox="0 0 32 32" fill="none" xmlns="http://www.w3.org/2000/svg">
<path d="M23.8779 7.02333L25.1829 4.67169C25.4703 4.15389 26.1055 3.97716 26.6018 4.27693C27.0981 4.5767 27.2675 5.23947 26.9802 5.75727L18.6539 20.7617C18.9714 21.211 19.159 21.7662 19.159 22.3673C19.159 23.863 17.9967 25.0756 16.563 25.0756C15.1293 25.0756 13.9671 23.863 13.9671 22.3673C13.9671 20.8715 15.1293 19.6589 16.563 19.6589C16.6623 19.6589 16.7602 19.6647 16.8566 19.676L21.9792 10.4448L21.7704 8.55651C21.6394 7.37213 20.6782 6.47834 19.5354 6.47834H13.5906C12.4479 6.47834 11.4866 7.37213 11.3556 8.55651L9.55844 24.8065C9.4043 26.2002 10.4487 27.4228 11.7934 27.4228H21.3326C22.6773 27.4228 23.7217 26.2002 23.5676 24.8065L22.7892 17.9506L24.8207 14.64L25.9745 24.5168C26.2947 27.4114 24.1255 29.9506 21.3326 29.9506H11.7934C9.00055 29.9506 6.83138 27.4113 7.15151 24.5168L8.94871 8.26677C9.22077 5.80689 11.2172 3.95056 13.5906 3.95056H19.5354C21.4884 3.95056 23.1862 5.20748 23.8779 7.02333Z" fill="#1C0606"/>
</svg>
